<svg height="400pt" viewBox="-63 0 400 400.63314" width="400pt" xmlns="http://www.w3.org/2000/svg"><path d="m235.917969 159.773438c18.929687 25.949218 28.398437 57.640624 28.398437 89.328124 0 36.273438-12.398437 72.53125-37.199218 100.203126-24.699219 27.558593-57.25 41.328124-89.800782 41.328124-32.550781 0-65.101562-13.769531-89.800781-41.328124-46.46875-51.839844-49.398437-133.882813-8.800781-189.53125 10.140625-13.890626 19.886718-28.050782 29.242187-42.480469l69.359375-107.289063 69.359375 107.289063c9.339844 14.441406 19.085938 28.601562 29.242188 42.480469zm0 0" fill="#e48e66"/><path d="m67.957031 117.292969c-9.339843 14.441406-19.085937 28.601562-29.242187 42.480469-40.597656 55.648437-37.667969 137.691406 8.800781 189.53125 24.699219 27.558593 57.25 41.328124 89.800781 41.328124v-380.628906zm0 0" fill="#d18162"/><g fill="#63316d"><path d="m215.605469 255.191406c-5.523438 0-10 4.480469-10 10 0 31.464844-22.472657 57.0625-50.097657 57.0625-5.523437 0-10 4.476563-10 10 0 5.523438 4.476563 10 10 10 38.652344 0 70.097657-34.570312 70.097657-77.0625 0-5.519531-4.476563-10-10-10zm0 0"/><path d="m215.074219 111.863281-69.359375-107.289062c-1.839844-2.851563-5.003906-4.574219-8.398438-4.574219-3.394531 0-6.558594 1.722656-8.398437 4.574219l-69.359375 107.289062c-9.035156 13.96875-18.765625 28.105469-28.921875 42.015625-21.058594 28.867188-31.769531 65.277344-30.160157 102.519532 1.621094 37.539062 15.683594 72.898437 39.59375 99.578124 25.808594 28.800782 60.34375 44.65625 97.246094 44.65625s71.4375-15.859374 97.246094-44.65625c25.636719-28.601562 39.753906-66.558593 39.753906-106.875 0-34.597656-10.769531-68.417968-30.324218-95.222656-10.152344-13.910156-19.882813-28.042968-28.917969-42.015625zm4.601562 230.765625c-21.964843 24.507813-51.210937 38-82.355469 38-31.140624 0-60.386718-13.5-82.351562-38-20.832031-23.238281-33.085938-54.167968-34.507812-87.089844-1.414063-32.734374 7.941406-64.652343 26.335937-89.867187 10.375-14.210937 20.320313-28.660156 29.5625-42.949219l60.957031-94.304687 60.960938 94.300781c9.242187 14.285156 19.1875 28.734375 29.558594 42.945312 17.082031 23.410157 26.480468 53.042969 26.480468 83.4375 0 35.386719-12.300781 68.601563-34.648437 93.527344zm0 0"/></g></svg>