<?xml version="1.0"?>
<svg xmlns="http://www.w3.org/2000/svg" id="Layer_1" data-name="Layer 1" viewBox="0 0 512 512" width="512" height="512"><title>globe 02</title><path d="M266,436.63h96.85a15.15,15.15,0,0,1,0,30.3H194.15a15.15,15.15,0,0,1,0-30.3Z" style="fill:#6fe3ff"/><path d="M292,364.44v72.19H266V364.44l.04-.8a166.2,166.2,0,0,0,25.81-.59Z" style="fill:#6fe3ff"/><path d="M392.26,136.94c28.38,57.94,10.28,128.1-42.17,165.01-7.84-14.25-18.25-30.01-21.25-49.29,4.42-9.55,2.83-19.83.74-32.48-3.91-23.67-16.6-25.98-39.17-15.56-6.65-.85-8.19-5.61-15.46-5.32-6.36.26-10.13,6.87-15.92,8.22-6.31,1.47-10.82-3.37-17.08.02-6.75,3.66-10.35,13.68-17.43,17.17-4.75,2.35-37.6-.72-41.55-5.75-8.36-10.61,7.19-19.79,17.25-22.59,14.22,7.75,43.83-1.61,16.26-25.36,4.44-19.89-10.12-54.95-36.24-63.29l-2.9-.23A130.243,130.243,0,0,1,206.6,82.94c1.01-.63,2.02-1.23,3.05-1.83a129.769,129.769,0,0,1,50.23-16.72l.01.07c-.25,9.55-9.19,15.72-10.16,23.35-.89,6.96,6.11,19.24,13.38,24.17,17.45,11.85,45.86-11.13,29.56-31,6.17-3.85,7.73-5.55,13.81-12.18l.33-1.3a130.834,130.834,0,0,1,25.36,9.27l-.31.62c-37.51,16.48-31.92,55.55-3.42,80.4,20.4,17.78,50.68,1.67,63.17-20.52Z" style="fill:#e48e66"/><path d="M392.26,136.94l-.65.33c-12.49,22.19-42.77,38.3-63.17,20.52-28.5-24.85-34.09-63.92,3.42-80.4l.31-.62a130.242,130.242,0,0,1,55.93,52.34Q390.32,132.98,392.26,136.94Z" style="fill:#f8ec7d"/><path d="M350.09,301.95q-4.725,3.33-9.81,6.28c-1.44.84-2.9,1.64-4.36,2.42a130.224,130.224,0,0,1-32.34,12c-5.05-3.87-10.51-15.83-14.46-19.64-47.65,4.69-65.66-19.23-69.16-25.24-4.57-7.84,1.67-12.58-.65-19.9-14.49-12.29-33.93,5.9-47.67,16.59l-.23.17a131.652,131.652,0,0,1,5.93-167.14l2.9.23c26.12,8.34,40.68,43.4,36.24,63.29,27.57,23.75-2.04,33.11-16.26,25.36-10.06,2.8-25.61,11.98-17.25,22.59,3.95,5.03,36.8,8.1,41.55,5.75,7.08-3.49,10.68-13.51,17.43-17.17,6.26-3.39,10.77,1.45,17.08-.02,5.79-1.35,9.56-7.96,15.92-8.22,7.27-.29,8.81,4.47,15.46,5.32,22.57-10.42,35.26-8.11,39.17,15.56,2.09,12.65,3.68,22.93-.74,32.48C331.84,271.94,342.25,287.7,350.09,301.95Z" style="fill:#f8ec7d"/><path d="M306.81,67.5l-.33,1.3c-6.08,6.63-7.64,8.33-13.81,12.18,16.3,19.87-12.11,42.85-29.56,31-7.27-4.93-14.27-17.21-13.38-24.17.97-7.63,9.91-13.8,10.16-23.35l-.01-.07A130.267,130.267,0,0,1,306.81,67.5Z" style="fill:#f8ec7d"/><path d="M289.12,303.01c3.95,3.81,9.41,15.77,14.46,19.64a130.512,130.512,0,0,1-132.17-48.02l.23-.17c13.74-10.69,33.18-28.88,47.67-16.59,2.32,7.32-3.92,12.06.65,19.9C223.46,283.78,241.47,307.7,289.12,303.01Z" style="fill:#e48e66"/><path d="M394.167,125.619A137.211,137.211,0,0,0,209.1,73.387L196.934,52.653a162.451,162.451,0,0,1,23.588-10.718,7,7,0,0,0-4.744-13.171A176.636,176.636,0,0,0,187.159,42.1c-1.173.685-2.345,1.381-3.487,2.08A176.556,176.556,0,0,0,122.923,282.76,174.993,174.993,0,0,0,259,370.13V430H194.15A21.847,21.847,0,0,0,172,451.908,22.126,22.126,0,0,0,194.15,474h168.7a22,22,0,1,0,0-44H299V369.227a173.608,173.608,0,0,0,60.506-20.139c1.092-.6,2.184-1.209,3.257-1.833a178.136,178.136,0,0,0,26.463-18.771,7,7,0,1,0-9.112-10.629,163.914,163.914,0,0,1-21.62,15.649L345.733,313.13c2.874-1.732,5.671-3.545,8.328-5.416l.023-.016.034-.023A138.426,138.426,0,0,0,398.55,133.869C397.221,131.147,395.748,128.375,394.167,125.619Zm-12.139,6.975q1.048,1.826,2.021,3.658c-7.186,11.165-19.147,19.75-30.535,21.713-7.879,1.355-14.767-.478-20.474-5.451-14.667-12.789-22.445-29.47-20.3-43.533,1.568-10.267,8.39-18.586,19.773-24.175A123.232,123.232,0,0,1,382.028,132.594ZM304.441,91.552a25.591,25.591,0,0,0-2.3-8.6,64.043,64.043,0,0,0,7.623-7.378q3.641,1.071,7.217,2.36A47.4,47.4,0,0,0,304.441,91.552ZM274.907,70.517a122.442,122.442,0,0,1,18.585,1.424,48.214,48.214,0,0,1-4.528,3.1,7,7,0,0,0-1.706,10.378c6.128,7.471,2.344,13.73-.457,16.8-4.818,5.274-13.528,8.2-19.762,3.97-5.866-3.979-10.818-13.956-10.365-17.5.234-1.836,1.845-4.3,3.551-6.911a42.754,42.754,0,0,0,5.635-10.918C268.876,70.641,271.892,70.517,274.907,70.517ZM135.058,275.779A162.573,162.573,0,0,1,184.991,59.962l12.194,20.776a138.048,138.048,0,0,0-41.421,182.987,140.085,140.085,0,0,0,10.085,15.157,137.8,137.8,0,0,0,109.282,53.936,136.24,136.24,0,0,0,29.991-3.339l.013,0,.008,0a137.038,137.038,0,0,0,28.209-9.734L346.2,340.245a159.2,159.2,0,0,1-55.041,15.829c-.124.013-.247.029-.368.047a159.352,159.352,0,0,1-24.37.528A161.081,161.081,0,0,1,135.058,275.779Zm76.853-99.465c8.006,6.9,9.55,11.544,8.644,12.856-1.9,2.75-11.012,4.309-16.985,1.054a7.011,7.011,0,0,0-5.227-.6c-14.588,4.06-22.033,12.442-23.977,18.387-1.689,5.167-.586,10.593,3.1,15.27,1.253,1.595,4.579,5.831,25.157,8.271,7.185.851,19.989,1.909,24.994-.566,5.091-2.509,8.5-6.915,11.5-10.8,2.154-2.786,4.188-5.417,6.167-6.491,1.071-.58,1.827-.485,4.6.162a22.439,22.439,0,0,0,10.738.48c4.061-.947,7.162-3.307,9.654-5.2,1.965-1.5,3.662-2.788,4.956-2.841,1.9-.074,2.718.417,4.7,1.609a23.264,23.264,0,0,0,9.6,3.661,7,7,0,0,0,3.822-.588c10.818-5,18.352-6.442,22.393-4.3,3.286,1.74,5.619,6.667,6.937,14.642,2.113,12.792,3.234,21.008-.187,28.4a7,7,0,0,0-.564,4.016c2.736,17.582,11.013,32.138,18.316,44.982.192.337.378.667.569,1-1.33.84-2.68,1.665-4.055,2.464-1.179.687-2.492,1.416-4.112,2.282A123.563,123.563,0,0,1,305.812,314.9c-1.6-2.072-3.434-5-4.9-7.334-2.467-3.94-4.6-7.342-6.935-9.6a6.994,6.994,0,0,0-5.545-1.929c-45.723,4.507-60.851-19.091-62.428-21.8-1.087-1.865-.917-2.868-.158-6.055.737-3.1,1.747-7.344.134-12.433a7.008,7.008,0,0,0-2.145-3.225c-16.914-14.345-37.154,1-51.021,12.056-1.72-2.541-3.37-5.158-4.919-7.847a124.3,124.3,0,0,1,12.167-141.655c21.358,8.336,33.18,38.287,29.583,54.4A7,7,0,0,0,211.911,176.314Zm2,104.978c3.245,5.572,21.687,32.575,72.106,29.006.968,1.4,2.069,3.163,3.031,4.7.583.931,1.172,1.864,1.765,2.791a123.717,123.717,0,0,1-109.492-42.074c15.058-11.955,24.522-17.559,31.5-13.847a22.116,22.116,0,0,1-.6,3.079C211.323,268.754,209.955,274.506,213.911,281.292ZM371,452a8.032,8.032,0,0,1-8.15,8H194.15a8.189,8.189,0,0,1-8.15-8.185,7.713,7.713,0,0,1,2.39-5.592A7.939,7.939,0,0,1,194.15,444h71.1c.245,0,.493.04.745.04s.5-.04.738-.04h24.517c.245,0,.493.04.745.04s.5-.04.738-.04H362.85A8.032,8.032,0,0,1,371,452Zm-98-22V370.859c.715.009,1.429.03,2.144.03,3.288,0,6.577-.1,9.856-.29V430ZM394.706,225.594a124.145,124.145,0,0,1-42.437,65.956c-6.691-11.767-13.568-23.926-16.185-38.048,4.274-11.026,2.39-22.431.4-34.463-2.1-12.692-6.739-20.782-14.194-24.732-8.045-4.263-18.165-3.361-32.606,2.963a17.74,17.74,0,0,1-2.542-1.363c-2.7-1.622-6.4-3.862-12.479-3.6-5.7.232-9.677,3.258-12.871,5.687-1.649,1.256-3.209,2.442-4.353,2.709-1.116.263-2.326,0-4.368-.475-3.425-.8-8.6-2.014-14.46,1.16-4.579,2.483-7.763,6.6-10.573,10.237-2.173,2.811-4.231,5.474-6.321,6.651-5.432,1.187-28.6-1.317-33.572-4.085-.722-1.067-.564-1.552-.474-1.827.886-2.71,6.25-6.4,12.1-8.5,10.657,4.164,25.955,2.452,32.3-6.725,3.342-4.831,6.452-14.779-8.086-28.761,2.134-20.364-9.991-51.492-33.813-64.042a123.772,123.772,0,0,1,20.139-15.453c.948-.592,1.9-1.154,2.85-1.71a122.845,122.845,0,0,1,35.905-13.9c-.184.284-.367.567-.557.857-2.382,3.643-5.081,7.773-5.72,12.8-1.1,8.571,5.681,23.587,16.39,30.849a25.616,25.616,0,0,0,14.578,4.468,32.681,32.681,0,0,0,23.384-10.58q.738-.808,1.4-1.644c-1.491,18.181,7.79,37.786,25.3,53.052a36.938,36.938,0,0,0,24.744,9.333,42.935,42.935,0,0,0,7.306-.639c12.718-2.191,25.445-10.051,34.733-20.965A124.562,124.562,0,0,1,394.706,225.594Z" style="fill:#63316d"/></svg>
