<?xml version="1.0"?>
<svg xmlns="http://www.w3.org/2000/svg" id="Layer_1" data-name="Layer 1" viewBox="0 0 512 512" width="512" height="512"><title>navigate map </title><path d="M289.65,388.35H189.01a40.6,40.6,0,1,1,0-81.19h74.33a24.49,24.49,0,0,0,0-48.98H230.41a6,6,0,0,1,0-12h32.93a36.49,36.49,0,1,1,0,72.98H189.01a28.6,28.6,0,1,0,0,57.19H289.65a6,6,0,0,1,0,12Z" style="fill:#f8ec7d"/><path d="M403.17,367.61c47.4,2.26,83.28,12.92,83.28,25.73,0,14.45-45.68,26.17-102.04,26.17s-102.04-11.72-102.04-26.17c0-12.83,35.98-23.5,83.47-25.74l.01-.01,18.56,26.82,18.61-26.9Z" style="fill:#6fe3ff"/><path d="M444.24,290.87a54.957,54.957,0,0,1-9.87,31.34l-31.35,45.3-18.61,26.9-18.56-26.82-31.39-45.38c-15.63-22.59-12.43-52.53,7.65-71.66,23.36-22.25,61.24-22.25,84.61,0A55.57,55.57,0,0,1,444.24,290.87Zm-29.83-.22a30,30,0,1,0-30,30A30,30,0,0,0,414.41,290.65Z" style="fill:#e48e66"/><circle cx="384.41" cy="290.65" r="30" style="fill:#f8ec7d"/><path d="M146.34,226.24c47.4,2.26,83.29,12.92,83.29,25.73,0,14.45-45.69,26.17-102.04,26.17S25.55,266.42,25.55,251.97c0-12.83,35.98-23.5,83.47-25.74l.01-.01,18.56,26.82,18.61-26.9Z" style="fill:#6fe3ff"/><path d="M187.41,149.5a54.957,54.957,0,0,1-9.87,31.34l-31.34,45.3-18.61,26.9-18.56-26.82-31.4-45.38c-15.62-22.59-12.43-52.53,7.65-71.66,23.37-22.25,61.25-22.25,84.61,0A55.586,55.586,0,0,1,187.41,149.5Zm-29.82-.22a30,30,0,1,0-30,30A30,30,0,0,0,157.59,149.28Z" style="fill:#e48e66"/><circle cx="127.59" cy="149.28" r="30" style="fill:#f8ec7d"/></svg>
