<?xml version="1.0" encoding="utf-8"?>
<!-- Generator: Adobe Illustrator 21.0.0, SVG Export Plug-In . SVG Version: 6.00 Build 0)  -->
<svg version="1.1" id="Layer_1" xmlns="http://www.w3.org/2000/svg" xmlns:xlink="http://www.w3.org/1999/xlink" x="0px" y="0px"
	 viewBox="0 0 52 13" style="enable-background:new 0 0 52 13;" xml:space="preserve">
<style type="text/css">
	.st0{enable-background:new    ;}
	.st1{fill:#69B517;}
	.st2{fill:#2E3830;}
</style>
<title>mainLogo</title>
<desc>Created with Sketch.</desc>
<g id="Page-1">
	<g id="Group">
		<g class="st0">
			<path class="st1" d="M15.8,9.3C15.8,9.3,15.7,9.2,15.8,9.3C15.7,9,16.1,9,16.2,9c0-0.7,0.2-5.7,0.2-6.8l0,0c0,0-0.2,0-0.3,0
				c-0.1,0-0.2,0-0.2-0.1C15.9,2,15.9,2,16,2l1.4,0.2v0.1l-0.4,0C16.9,4,16.8,6.9,16.8,9c0.8,0.2,2.6,0.3,2.5-0.8
				c0-0.3-0.1-0.5-0.4-0.5c-0.3,0-0.4,0.3-0.4,0.5c0,0,0,0.1,0,0.1c0,0.1,0.1,0.2,0.2,0.2c0,0,0.1-0.1,0.1-0.1c0,0,0,0.1,0,0.1
				c0,0.1-0.1,0.1-0.2,0.1c-0.2,0-0.3-0.3-0.3-0.5c0-0.9,1.2-1,1.2,0.1c-0.1,1.5-2.2,1-3.2,1C16.1,9.2,16,9.3,15.8,9.3z"/>
			<path class="st1" d="M21.4,9.3c-1.8,1.2-2.2-2.2-0.1-1.7h0c0,0,0-0.1,0-0.1c0-0.7,0.1-1.7-0.5-1.6h0C20.2,6,19.7,7.1,20.5,7
				c0.1,0,0.2,0,0.2-0.1c0,0-0.1-0.1,0-0.1c0.2,0,0.1,0.4-0.1,0.4c-1.2,0.1-0.7-1.2,0.2-1.3c1.9-0.2,0.4,3.8,1.3,3.6
				c0.3-0.1,0.2-0.3,0.4-0.4c0,0,0.1,0.1,0.1,0.1C22.6,9.8,21.6,9.8,21.4,9.3L21.4,9.3z M21.4,9.2l0-1.4C20,7.5,20.4,9.8,21.4,9.2z"
				/>
			<path class="st1" d="M22.9,5.8c0,0-0.2,0-0.3,0c-0.1,0-0.2,0-0.2-0.1c0-0.1,0.1-0.1,0.1-0.1c0.1,0,0.3,0,0.4,0c0,0,0,0,0,0
				l0.2-1.8l0,0c-0.1,0-0.2-0.1-0.2-0.1c0,0,0-0.1,0-0.1c0,0,0,0,0,0c0,0,0.1,0,0.1,0c0.2,0.1,0.4,0.1,0.6,0.1c0,0,0,0,0,0
				c0,0,0,0,0,0v0c-0.1,0.4-0.2,1.5-0.2,1.8v0.1c0.3,0,0.7,0,1,0c0.1,0,0.1,0,0.1,0.1c0,0.1,0,0.1,0,0.1c0,0,0,0,0,0c0,0,0,0,0,0
				c-0.3,0-0.7,0-1,0l0,0.1c0,2.3,0,3.4,0.5,3.5c0.4,0,0.8-0.5,0.8-1c0-0.1,0-0.1,0-0.1c0,0,0,0,0,0l0.1-0.1
				c0.1,0.1,0.1,0.2,0.1,0.3C25,9,24.7,9.5,24,9.6c-0.8,0.1-1-0.8-1.1-1.5C22.9,7.3,22.9,6.6,22.9,5.8z"/>
		</g>
		<g class="st0">
			<path class="st2" d="M27.3,5.9c0.9,0.1,1.2,0.7,1.2,1.6c0.1,0,0.2,0,0.3,0v0c0,0,0,0.1,0,0.1l-2.2,0c0,0.4,0.1,1.7,0.7,1.7
				c0.4,0,0.9-0.2,0.9-0.6c0-0.1-0.1-0.3,0-0.4c0,0,0.1-0.1,0.1-0.1c0.1,0,0.1,0.3,0.1,0.4c0,0.6-0.6,0.9-1.1,0.8
				c-1-0.1-1.3-1.1-1.3-1.9C26,6.8,26.4,5.9,27.3,5.9z M27.8,7.5c0,0,0-0.1,0-0.1c0-0.3,0-1-0.4-1.2c-0.5-0.4-0.9,1-0.9,1.3
				c0,0,0,0,0,0L27.8,7.5z"/>
			<path class="st2" d="M29.6,8.2c0.4,0,0.5,0.1,0.5,0.4c0,0,0,0,0,0c0,0.1,0,0.3-0.2,0.3c-0.1,0-0.1-0.1-0.1-0.1
				c0-0.1,0.1-0.1,0.1-0.2c0-0.2-0.1-0.3-0.4-0.3c-0.4,0-0.6,0.3-0.6,0.6c0,0.4,0.4,0.7,1,0.7c0.5,0,1.2-0.2,1.2-0.8
				c0-1-2.2-1.4-2.2-2.2c0-0.5,0.5-0.8,1.2-0.8c0.5,0,1.1,0.2,1.1,0.7c0,0.3-0.2,0.5-0.6,0.5c-0.1,0-0.4-0.1-0.4-0.2
				c0-0.1,0-0.1,0.1-0.1c0.1,0,0.2,0.1,0.3,0.1c0.3,0,0.5-0.2,0.5-0.4c0-0.4-0.6-0.5-1-0.5c-0.4,0-0.7,0.1-0.7,0.5
				c0,0.3,0.2,0.4,0.5,0.6c0.5,0.3,1.5,0.8,1.5,1.4c0,0.5-0.3,1.1-0.9,1.3c-0.6,0.2-1.7,0-1.7-0.7C28.9,8.6,29,8.2,29.6,8.2z"/>
			<path class="st2" d="M32,9.4C32,9.4,32,9.4,32,9.4c0.2,0,0.2,0,0.3,0c0,0,0.1,0,0.1,0l-0.3-3.5l0-0.1l-0.2,0l0,0c0,0,0-0.1,0-0.1
				h0.8c0.1,0,0.2,0,0.2,0.1c0,0.1-0.1,0.1-0.1,0.1c0,1,0.1,2,0.1,3c0,0,0-0.1,0-0.1c0.2-1,0.5-2.9,1.3-2.8C35.2,6,34.9,7.9,35,8.8
				c0.2-1.1,0.5-2.8,1.4-2.7c1,0.1,0.7,1.9,0.9,3.2l0,0.1h0.3c0.1,0,0.1,0,0.1,0.1c0,0,0,0.1-0.1,0.1l-0.9,0c-0.2-2.7,0-3.2-0.6-3.2
				c0,0,0,0,0,0c-0.8-0.1-1.1,3.2-1.2,3.2h-0.4c0-3.4-0.1-3.4-0.5-3.4c0,0,0,0,0,0c-0.3,0.2-0.9,1.4-1,3.3c0.1,0,0.2,0,0.2,0
				c0,0,0,0,0,0c0,0,0.1,0.1,0,0.1C33.1,9.5,32.2,9.6,32,9.4C32,9.5,32,9.4,32,9.4z"/>
			<path class="st2" d="M39.2,5.8c2,0,2.1,3.7,0,3.6c-0.9,0-1.3-0.9-1.3-1.8C37.9,6.9,38.3,5.8,39.2,5.8z M39.1,9.3
				c1.3,0,1.3-3.3,0-3.3C38.1,6.3,38.3,9.2,39.1,9.3z"/>
			<path class="st2" d="M42.4,5.8c2,0,2.1,3.7,0,3.6c-0.9,0-1.3-0.9-1.3-1.8C41.1,6.9,41.5,5.8,42.4,5.8z M42.4,9.3
				c1.3,0,1.3-3.3,0-3.3C41.4,6.3,41.5,9.2,42.4,9.3z"/>
			<path class="st2" d="M44.3,9.4l0.4-0.1l0,0L44.4,6l0,0l-0.3,0c0,0-0.1-0.1-0.1-0.1c0,0,1-0.1,1.1-0.1c0,0,0,0.1,0,0.1
				c0,0.3,0,0.8,0,1l0,0c0.3-1.3,2.5-1.4,2.2,0c-0.1,0.7-0.6,1-1.1,0.8c-0.3-0.1-0.4-0.4-0.4-0.7c0.1-0.7,0.8-0.6,0.8,0.1
				c0,0,0,0-0.1,0c0,0,0,0,0,0c0-0.1,0-0.2-0.3-0.3c-0.2,0-0.3,0.1-0.3,0.3c0,0.3,0.2,0.6,0.5,0.6c0.4,0,0.7-0.3,0.7-0.7
				c0.2-1.5-1.9-0.9-2,0.5l0.1,1.9l0,0c0,0,0.2,0,0.2,0h0h0c0,0,0,0.1,0,0.1v0c0,0,0,0,0,0C45.2,9.4,44.8,9.5,44.3,9.4
				C44.3,9.5,44.3,9.4,44.3,9.4L44.3,9.4z"/>
			<path class="st2" d="M49,5.9C50,6,50.2,6.7,50.3,7.5c0.1,0,0.2,0,0.3,0v0c0,0,0,0.1,0,0.1l-2.2,0c0,0.4,0.1,1.7,0.7,1.7
				c0.4,0,0.9-0.2,0.9-0.6c0-0.1-0.1-0.3,0-0.4c0,0,0.1-0.1,0.1-0.1c0.1,0,0.1,0.3,0.1,0.4c0,0.6-0.6,0.9-1.1,0.8
				c-1-0.1-1.3-1.1-1.3-1.9C47.8,6.8,48.2,5.9,49,5.9z M49.6,7.5c0,0,0-0.1,0-0.1c0-0.3,0-1-0.4-1.2c-0.5-0.4-0.9,1-0.9,1.3
				c0,0,0,0,0,0L49.6,7.5z"/>
		</g>
		<path id="Path" class="st1" d="M13.7,7.5c-0.1,0.2-0.2,0.4-0.4,0.6c-1.5,2.1-3.9,3.4-6.5,3.4c-2.6,0-5-1.3-6.5-3.4
			C0.2,7.9,0.1,7.7,0,7.5c0,0,0.1,0,0.1-0.1C0.2,7.7,0.3,7.9,0.5,8c1.5,2.1,3.9,3.3,6.4,3.3c2.5,0,4.9-1.2,6.4-3.3
			C13.4,7.8,13.5,7.7,13.7,7.5C13.7,7.5,13.7,7.5,13.7,7.5L13.7,7.5z"/>
		<path id="Path_1_" class="st1" d="M13.7,6.8c-0.1,0.2-0.2,0.4-0.4,0.6c-1.5,2.1-3.9,3.4-6.5,3.4c-2.6,0-5-1.3-6.5-3.4
			C0.2,7.2,0.1,7,0,6.8c0,0,0.1,0,0.1-0.1C0.2,7,0.3,7.2,0.5,7.3c1.5,2.1,3.9,3.3,6.4,3.3s4.9-1.2,6.4-3.3
			C13.4,7.1,13.5,6.9,13.7,6.8C13.7,6.8,13.7,6.8,13.7,6.8L13.7,6.8z"/>
		<path id="Path_2_" class="st1" d="M2.1,4.5L2.1,4.5C2.6,5.4,2.9,6,3,6.3c0.5,1.2,0.8,1.8,1,2c0.2,0.2,0.9,1.1,2,1.3
			c0.2,0,0.2,0,1.4,0c0.6,0,1,0,1.4,0c0-0.1,0-0.3,0-0.4c0-0.2,0-0.8-0.3-1.6C8,6.8,7.8,6.1,7.1,5.5C6.8,5.2,6,4.5,5,4.5
			c-0.4,0-0.8,0.1-2,0c-0.2,0-0.3,0-0.5,0L2.1,4.5z"/>
		<path id="Path_3_" class="st2" d="M8.1,1.5L8.1,1.5C7.7,2.4,7.4,3,7.3,3.3c-0.6,1.2-0.9,1.7-1,2C6.2,5.6,6,6.6,6.5,7.6
			c0.1,0.2,0.1,0.2,0.8,1.1c0.3,0.5,0.6,0.8,0.8,1.1c0.1-0.1,0.2-0.2,0.4-0.3c0.2-0.1,0.6-0.5,1.1-1.3c0.4-0.7,0.8-1.3,0.9-2.3
			c0-0.4,0.1-1.4-0.5-2.2C9.7,3.4,9.4,3.2,8.7,2.2C8.6,2,8.5,1.9,8.4,1.8L8.1,1.5z"/>
		<g class="st0">
			<path class="st2" d="M30.9,10.3v0.1h-0.6v0.4h0.5V11h-0.5v0.4h0.6v0.1h-0.8v-1.3H30.9z"/>
			<path class="st2" d="M31.3,10.3C31.3,10.3,31.3,10.3,31.3,10.3l0.8,1c0,0,0,0,0,0c0,0,0,0,0,0v-0.9h0.2v1.3h-0.1c0,0,0,0,0,0
				c0,0,0,0,0,0l-0.7-1c0,0,0,0,0,0c0,0,0,0,0,0v0.9h-0.1v-1.3L31.3,10.3C31.2,10.3,31.3,10.3,31.3,10.3z"/>
			<path class="st2" d="M33.3,10.3v0.1h-0.6v0.4h0.5V11h-0.5v0.4h0.6v0.1h-0.8v-1.3H33.3z"/>
			<path class="st2" d="M33.7,11v0.5h-0.2v-1.3h0.4c0.1,0,0.1,0,0.2,0c0.1,0,0.1,0,0.1,0.1c0,0,0.1,0.1,0.1,0.1c0,0,0,0.1,0,0.1
				c0,0,0,0.1,0,0.1c0,0,0,0.1-0.1,0.1c0,0-0.1,0.1-0.1,0.1c0,0-0.1,0-0.1,0c0,0,0,0,0.1,0.1l0.4,0.5h-0.2c0,0-0.1,0-0.1,0L33.9,11
				c0,0,0,0,0,0s0,0-0.1,0H33.7z M33.7,10.9h0.2c0,0,0.1,0,0.1,0c0,0,0.1,0,0.1-0.1c0,0,0,0,0.1-0.1c0,0,0-0.1,0-0.1
				c0-0.1,0-0.1-0.1-0.2c0,0-0.1-0.1-0.2-0.1h-0.2V10.9z"/>
			<path class="st2" d="M35.2,11.4C35.2,11.4,35.2,11.4,35.2,11.4c0.1,0,0.1,0,0.2,0s0,0,0.1,0s0,0,0.1,0V11h-0.2c0,0,0,0,0,0
				c0,0,0,0,0,0v-0.1h0.4v0.5c0,0-0.1,0-0.1,0.1c0,0-0.1,0-0.1,0s-0.1,0-0.1,0c0,0-0.1,0-0.1,0c-0.1,0-0.2,0-0.3,0s-0.1-0.1-0.2-0.1
				c-0.1-0.1-0.1-0.1-0.1-0.2c0-0.1,0-0.2,0-0.3c0-0.1,0-0.2,0-0.3c0-0.1,0.1-0.1,0.1-0.2s0.1-0.1,0.2-0.1c0.1,0,0.2,0,0.3,0
				c0,0,0.1,0,0.1,0c0,0,0.1,0,0.1,0s0.1,0,0.1,0.1s0.1,0,0.1,0.1l0,0.1c0,0,0,0,0,0c0,0,0,0,0,0c0,0,0,0,0,0c0,0,0,0-0.1,0
				c0,0-0.1,0-0.1,0c0,0-0.1,0-0.1,0c-0.1,0-0.1,0-0.2,0s-0.1,0.1-0.1,0.1c0,0-0.1,0.1-0.1,0.2c0,0.1,0,0.1,0,0.2c0,0.1,0,0.2,0,0.2
				s0.1,0.1,0.1,0.2c0,0,0.1,0.1,0.1,0.1C35,11.4,35.1,11.4,35.2,11.4z"/>
			<path class="st2" d="M36.4,11v0.5h-0.2V11l-0.5-0.8h0.2c0,0,0,0,0,0c0,0,0,0,0,0l0.3,0.5c0,0,0,0,0,0.1c0,0,0,0,0,0.1
				c0,0,0,0,0-0.1c0,0,0,0,0-0.1l0.3-0.5c0,0,0,0,0,0c0,0,0,0,0,0h0.2L36.4,11z"/>
			<path class="st2" d="M37.8,10.2c0,0,0.1,0,0.1,0c0,0,0.1,0,0.1,0.1c0,0,0.1,0.1,0.1,0.1c0,0,0,0.1,0,0.1l-0.1,0c0,0,0,0,0,0
				c0,0,0,0,0,0c0,0,0,0,0,0c0,0,0,0,0,0c0,0,0,0,0,0c0,0,0,0-0.1,0c0,0,0,0-0.1,0c0,0-0.1,0-0.1,0s0,0-0.1,0c0,0,0,0,0,0.1
				c0,0,0,0,0,0.1c0,0,0,0,0,0.1c0,0,0,0,0,0.1c0,0,0,0,0,0.1c0,0,0,0,0.1,0.1l0.4,0.4c0,0,0-0.1,0.1-0.1c0,0,0-0.1,0-0.1
				c0,0,0,0,0,0s0,0,0,0h0.1c0,0.1,0,0.1,0,0.2c0,0.1,0,0.1-0.1,0.2l0.3,0.3h-0.2c0,0,0,0,0,0s0,0,0,0l-0.1-0.1
				c-0.1,0.1-0.1,0.1-0.2,0.1c-0.1,0-0.2,0-0.2,0c0,0-0.1,0-0.1,0c0,0-0.1,0-0.1-0.1c0,0-0.1-0.1-0.1-0.1s0-0.1,0-0.1
				c0,0,0-0.1,0-0.1s0-0.1,0.1-0.1s0.1-0.1,0.1-0.1c0,0,0.1,0,0.1-0.1c0,0-0.1-0.1-0.1-0.1c0,0,0-0.1,0-0.1c0,0,0-0.1,0-0.1
				c0,0,0-0.1,0.1-0.1s0.1,0,0.1-0.1S37.7,10.2,37.8,10.2z M37.4,11.2c0,0,0,0.1,0,0.1s0,0.1,0.1,0.1c0,0,0,0,0.1,0c0,0,0.1,0,0.1,0
				c0.1,0,0.1,0,0.2,0c0.1,0,0.1-0.1,0.1-0.1l-0.4-0.4c-0.1,0-0.1,0.1-0.1,0.1C37.4,11.1,37.4,11.1,37.4,11.2z"/>
			<path class="st2" d="M39.1,11.4h0.5v0.1h-0.7v-1.3h0.2V11.4z"/>
			<path class="st2" d="M40.9,10.9c0,0.1,0,0.2,0,0.3c0,0.1-0.1,0.1-0.1,0.2c-0.1,0.1-0.1,0.1-0.2,0.1c-0.1,0-0.2,0-0.3,0
				c-0.1,0-0.2,0-0.3,0c-0.1,0-0.1-0.1-0.2-0.1c-0.1-0.1-0.1-0.1-0.1-0.2c0-0.1,0-0.2,0-0.3c0-0.1,0-0.2,0-0.3
				c0-0.1,0.1-0.1,0.1-0.2c0.1-0.1,0.1-0.1,0.2-0.1s0.2,0,0.3,0c0.1,0,0.2,0,0.3,0s0.1,0.1,0.2,0.1c0.1,0.1,0.1,0.1,0.1,0.2
				C40.9,10.7,40.9,10.8,40.9,10.9z M40.8,10.9c0-0.1,0-0.1,0-0.2c0-0.1-0.1-0.1-0.1-0.2s-0.1-0.1-0.1-0.1s-0.1,0-0.2,0
				s-0.1,0-0.2,0S40,10.5,40,10.5s-0.1,0.1-0.1,0.2c0,0.1,0,0.1,0,0.2c0,0.1,0,0.1,0,0.2s0.1,0.1,0.1,0.2s0.1,0.1,0.1,0.1
				s0.1,0,0.2,0s0.1,0,0.2,0s0.1-0.1,0.1-0.1s0.1-0.1,0.1-0.2S40.8,11,40.8,10.9z"/>
			<path class="st2" d="M41.7,11.4C41.8,11.4,41.8,11.4,41.7,11.4c0.1,0,0.1,0,0.2,0s0,0,0.1,0c0,0,0,0,0.1,0V11h-0.2c0,0,0,0,0,0
				c0,0,0,0,0,0v-0.1h0.4v0.5c0,0-0.1,0-0.1,0.1c0,0-0.1,0-0.1,0s-0.1,0-0.1,0s-0.1,0-0.1,0c-0.1,0-0.2,0-0.3,0s-0.1-0.1-0.2-0.1
				c-0.1-0.1-0.1-0.1-0.1-0.2c0-0.1,0-0.2,0-0.3c0-0.1,0-0.2,0-0.3c0-0.1,0.1-0.1,0.1-0.2c0.1-0.1,0.1-0.1,0.2-0.1s0.2,0,0.3,0
				c0,0,0.1,0,0.1,0c0,0,0.1,0,0.1,0c0,0,0.1,0,0.1,0.1s0.1,0,0.1,0.1l0,0.1c0,0,0,0,0,0c0,0,0,0,0,0c0,0,0,0,0,0c0,0,0,0-0.1,0
				c0,0-0.1,0-0.1,0s-0.1,0-0.1,0c-0.1,0-0.1,0-0.2,0c-0.1,0-0.1,0.1-0.1,0.1s-0.1,0.1-0.1,0.2c0,0.1,0,0.1,0,0.2c0,0.1,0,0.2,0,0.2
				c0,0.1,0.1,0.1,0.1,0.2c0,0,0.1,0.1,0.1,0.1C41.6,11.4,41.7,11.4,41.7,11.4z"/>
			<path class="st2" d="M42.7,11.5h-0.2v-1.3h0.2V11.5z"/>
			<path class="st2" d="M43.6,10.5C43.6,10.5,43.6,10.5,43.6,10.5C43.6,10.5,43.6,10.5,43.6,10.5C43.6,10.5,43.6,10.5,43.6,10.5
				c-0.1,0-0.1,0-0.1,0c0,0,0,0-0.1,0c0,0-0.1,0-0.1,0c0,0-0.1,0-0.1,0c0,0-0.1,0-0.1,0c0,0,0,0,0,0.1c0,0,0,0,0,0.1
				c0,0,0,0.1,0,0.1c0,0,0,0,0.1,0.1c0,0,0.1,0,0.1,0c0,0,0.1,0,0.1,0c0,0,0.1,0,0.1,0c0,0,0.1,0,0.1,0.1s0.1,0.1,0.1,0.1
				c0,0,0,0.1,0,0.1c0,0.1,0,0.1,0,0.2c0,0,0,0.1-0.1,0.1c0,0-0.1,0.1-0.1,0.1s-0.1,0-0.2,0c-0.1,0-0.2,0-0.2,0
				c-0.1,0-0.1-0.1-0.2-0.1l0-0.1c0,0,0,0,0,0c0,0,0,0,0,0c0,0,0,0,0,0c0,0,0,0,0.1,0c0,0,0.1,0,0.1,0s0.1,0,0.1,0c0,0,0.1,0,0.1,0
				s0.1,0,0.1,0c0,0,0,0,0.1-0.1s0-0.1,0-0.1c0,0,0-0.1,0-0.1c0,0,0,0-0.1-0.1c0,0-0.1,0-0.1,0c0,0-0.1,0-0.1,0c0,0-0.1,0-0.1,0
				c0,0-0.1,0-0.1-0.1c0,0-0.1-0.1-0.1-0.1c0,0,0-0.1,0-0.1c0,0,0-0.1,0-0.1s0-0.1,0.1-0.1c0,0,0.1-0.1,0.1-0.1s0.1,0,0.2,0
				c0.1,0,0.1,0,0.2,0C43.6,10.3,43.6,10.3,43.6,10.5L43.6,10.5z"/>
			<path class="st2" d="M44.8,10.3v0.1h-0.4v1.1h-0.2v-1.1h-0.4v-0.1H44.8z"/>
			<path class="st2" d="M45.2,11.5H45v-1.3h0.2V11.5z"/>
			<path class="st2" d="M46.4,11.3C46.4,11.3,46.4,11.3,46.4,11.3L46.4,11.3c0,0.1,0,0.2-0.1,0.2c-0.1,0-0.2,0-0.3,0
				c-0.1,0-0.2,0-0.2,0s-0.1-0.1-0.2-0.1c-0.1-0.1-0.1-0.1-0.1-0.2c0-0.1,0-0.2,0-0.3s0-0.2,0-0.3c0-0.1,0.1-0.1,0.1-0.2
				c0.1-0.1,0.1-0.1,0.2-0.1s0.2,0,0.3,0c0.1,0,0.2,0,0.2,0c0.1,0,0.1,0.1,0.2,0.1l-0.1,0.1c0,0,0,0,0,0c0,0,0,0,0,0c0,0,0,0,0,0
				c0,0,0,0,0,0s0,0,0,0c0,0,0,0-0.1,0c0,0,0,0-0.1,0s-0.1,0-0.1,0c-0.1,0-0.1,0-0.2,0s-0.1,0.1-0.1,0.1c0,0-0.1,0.1-0.1,0.2
				c0,0.1,0,0.1,0,0.2c0,0.1,0,0.1,0,0.2c0,0.1,0.1,0.1,0.1,0.2s0.1,0.1,0.1,0.1c0.1,0,0.1,0,0.2,0c0,0,0.1,0,0.1,0c0,0,0.1,0,0.1,0
				S46.3,11.3,46.4,11.3C46.3,11.3,46.3,11.3,46.4,11.3C46.4,11.3,46.4,11.3,46.4,11.3z"/>
			<path class="st2" d="M47.4,10.5C47.4,10.5,47.4,10.5,47.4,10.5C47.3,10.5,47.3,10.5,47.4,10.5C47.3,10.5,47.3,10.5,47.4,10.5
				c-0.1,0-0.1,0-0.1,0c0,0,0,0-0.1,0c0,0-0.1,0-0.1,0c0,0-0.1,0-0.1,0c0,0-0.1,0-0.1,0c0,0,0,0,0,0.1c0,0,0,0,0,0.1
				c0,0,0,0.1,0,0.1c0,0,0,0,0.1,0.1c0,0,0.1,0,0.1,0c0,0,0.1,0,0.1,0c0,0,0.1,0,0.1,0c0,0,0.1,0,0.1,0.1s0.1,0.1,0.1,0.1
				c0,0,0,0.1,0,0.1c0,0.1,0,0.1,0,0.2c0,0,0,0.1-0.1,0.1c0,0-0.1,0.1-0.1,0.1s-0.1,0-0.2,0c-0.1,0-0.2,0-0.2,0
				c-0.1,0-0.1-0.1-0.2-0.1l0-0.1c0,0,0,0,0,0c0,0,0,0,0,0c0,0,0,0,0,0c0,0,0,0,0.1,0c0,0,0.1,0,0.1,0s0.1,0,0.1,0c0,0,0.1,0,0.1,0
				s0.1,0,0.1,0c0,0,0,0,0.1-0.1s0-0.1,0-0.1c0,0,0-0.1,0-0.1c0,0,0,0-0.1-0.1c0,0-0.1,0-0.1,0c0,0-0.1,0-0.1,0c0,0-0.1,0-0.1,0
				c0,0-0.1,0-0.1-0.1c0,0-0.1-0.1-0.1-0.1c0,0,0-0.1,0-0.1c0,0,0-0.1,0-0.1s0-0.1,0.1-0.1c0,0,0.1-0.1,0.1-0.1s0.1,0,0.2,0
				c0.1,0,0.1,0,0.2,0C47.3,10.3,47.4,10.3,47.4,10.5L47.4,10.5z"/>
			<path class="st2" d="M48.2,11.4h0.5v0.1H48v-1.3h0.2V11.4z"/>
			<path class="st2" d="M49.6,10.3v0.1h-0.4v1.1H49v-1.1h-0.4v-0.1H49.6z"/>
			<path class="st2" d="M50.9,10.9c0,0.1,0,0.2,0,0.3c0,0.1-0.1,0.1-0.1,0.2c-0.1,0.1-0.1,0.1-0.2,0.1c-0.1,0-0.2,0-0.3,0h-0.5v-1.3
				h0.5c0.1,0,0.2,0,0.3,0s0.1,0.1,0.2,0.1s0.1,0.1,0.1,0.2C50.9,10.7,50.9,10.8,50.9,10.9z M50.7,10.9c0-0.1,0-0.1,0-0.2
				c0-0.1-0.1-0.1-0.1-0.2c0,0-0.1-0.1-0.1-0.1c-0.1,0-0.1,0-0.2,0H50v1h0.3c0.1,0,0.1,0,0.2,0s0.1-0.1,0.1-0.1c0,0,0.1-0.1,0.1-0.2
				C50.7,11,50.7,11,50.7,10.9z"/>
		</g>
	</g>
</g>
</svg>
