<?xml version="1.0"?>
<svg xmlns="http://www.w3.org/2000/svg" id="Layer_1" data-name="Layer 1" viewBox="0 0 512 512" width="512" height="512"><title>Database Checklist</title><path d="M282.5,332.55v-5.79a24.247,24.247,0,0,1,24.25-24.25h22.86V316.8h65.78V302.51h22.86a24.247,24.247,0,0,1,24.25,24.25V464.48a24.254,24.254,0,0,1-24.25,24.25H306.75a24.254,24.254,0,0,1-24.25-24.25V332.55Z" style="fill:#6fe3ff"/><polygon points="369.5 288.21 395.39 288.21 395.39 302.51 395.39 316.8 329.61 316.8 329.61 302.51 329.61 288.21 369.5 288.21" style="fill:#cc7350"/><path d="M369.5,180.41v107.8H329.61v14.3H306.75a24.247,24.247,0,0,0-24.25,24.25v5.79a384.453,384.453,0,0,1-63,5c-82.86,0-150-24.28-150-54.28V180.41c0,30,67.14,54.29,150,54.29S369.5,210.41,369.5,180.41Zm-51.05,92.11a11.92,11.92,0,1,0-11.92,11.92A11.926,11.926,0,0,0,318.45,272.52Z" style="fill:#f8ec7d"/><path d="M369.5,77.55V180.41c0,30-67.14,54.29-150,54.29s-150-24.29-150-54.29V77.55c0,29.98,67.16,54.29,150,54.29S369.5,107.53,369.5,77.55Zm-51.05,93.63a11.92,11.92,0,1,0-11.92,11.92A11.924,11.924,0,0,0,318.45,171.18Z" style="fill:#e48e66"/><path d="M219.5,23.27c82.84,0,150,24.3,150,54.28s-67.16,54.29-150,54.29-150-24.31-150-54.29S136.66,23.27,219.5,23.27Z" style="fill:#f8ec7d"/><circle cx="306.53" cy="171.18" r="11.92" style="fill:#f8ec7d"/><path d="M306.53,260.59a11.925,11.925,0,1,1-11.92,11.93A11.926,11.926,0,0,1,306.53,260.59Z" style="fill:#e48e66"/><path d="M282.5,332.55V436.12a384.362,384.362,0,0,1-63,5c-82.86,0-150-24.28-150-54.28V283.27c0,30,67.14,54.28,150,54.28A384.453,384.453,0,0,0,282.5,332.55Z" style="fill:#e48e66"/><path d="M448.5,464.48V326.76a30.284,30.284,0,0,0-30.25-30.25H401.39v-8.3a6,6,0,0,0-6-6H375.5V77.55c0-17.214-17.009-32.849-47.894-44.025C298.638,23.043,260.245,17.27,219.5,17.27s-79.138,5.773-108.106,16.255C80.509,44.7,63.5,60.336,63.5,77.55V386.84c0,17.222,17.006,32.86,47.886,44.032C140.347,441.35,178.742,447.12,219.5,447.12a394.911,394.911,0,0,0,57-3.992V464.48a30.284,30.284,0,0,0,30.25,30.25h111.5A30.284,30.284,0,0,0,448.5,464.48ZM389.39,310.8H335.61V294.21h53.78ZM75.5,101.48c8.117,7.6,20.212,14.424,35.893,20.1,28.971,10.486,67.364,16.261,108.107,16.261s79.136-5.775,108.107-16.261c15.681-5.675,27.776-12.5,35.893-20.1v78.93c0,11.623-14.568,23.561-39.969,32.753C295.845,223.183,258.9,228.7,219.5,228.7s-76.345-5.517-104.031-15.537c-25.4-9.192-39.969-21.13-39.969-32.753Zm39.977-56.67C143.169,34.789,180.112,29.27,219.5,29.27s76.331,5.519,104.023,15.54C348.929,54,363.5,65.936,363.5,77.55S348.929,101.1,323.523,110.3c-27.7,10.024-64.637,15.545-104.023,15.545s-76.328-5.521-104.023-15.545C90.071,101.1,75.5,89.165,75.5,77.55S90.071,54,115.477,44.81ZM219.5,435.12c-39.4,0-76.347-5.516-104.031-15.532C90.068,410.4,75.5,398.462,75.5,386.84V307.208c8.116,7.6,20.209,14.422,35.886,20.094,28.96,10.478,67.356,16.248,108.114,16.248a395.058,395.058,0,0,0,57-3.994v91.428A381.179,381.179,0,0,1,219.5,435.12Zm57-108.36v.653a381.344,381.344,0,0,1-57,4.137c-39.4,0-76.347-5.516-104.031-15.532-25.4-9.19-39.969-21.126-39.969-32.748V204.35c8.116,7.6,20.208,14.424,35.886,20.1C140.348,234.928,178.744,240.7,219.5,240.7s79.152-5.772,108.114-16.253c15.678-5.673,27.77-12.5,35.886-20.1v77.86H329.61a6,6,0,0,0-6,6v8.3H306.75A30.284,30.284,0,0,0,276.5,326.76Zm12,137.72V326.76a18.271,18.271,0,0,1,18.25-18.25h16.86v8.29a6,6,0,0,0,6,6h65.78a6,6,0,0,0,6-6v-8.29h16.86a18.271,18.271,0,0,1,18.25,18.25V464.48a18.271,18.271,0,0,1-18.25,18.25H306.75A18.271,18.271,0,0,1,288.5,464.48Z" style="fill:#63316d"/><path d="M392.463,367.659a6,6,0,0,0-8.424,1.018L360.33,398.9,346.294,385.37a6,6,0,0,0-8.328,8.64l18.82,18.14a6,6,0,0,0,4.164,1.68c.138,0,.277,0,.416-.015a6,6,0,0,0,4.305-2.282l27.809-35.45A6,6,0,0,0,392.463,367.659Z" style="fill:#63316d"/><path d="M165.665,185.554A398.1,398.1,0,0,0,219.5,189.1a408.7,408.7,0,0,0,43.054-2.234,6,6,0,1,0-1.268-11.932A397.054,397.054,0,0,1,219.5,177.1a386.262,386.262,0,0,1-52.205-3.434,6,6,0,1,0-1.63,11.888Z" style="fill:#63316d"/><path d="M306.53,189.1a17.92,17.92,0,1,0-17.92-17.92A17.94,17.94,0,0,0,306.53,189.1Zm0-23.84a5.92,5.92,0,1,1-5.92,5.92A5.927,5.927,0,0,1,306.53,165.26Z" style="fill:#63316d"/><path d="M261.286,276.274A397.1,397.1,0,0,1,219.5,278.44a387.8,387.8,0,0,1-52.209-3.435,6,6,0,0,0-1.622,11.89A399.841,399.841,0,0,0,219.5,290.44a409.3,409.3,0,0,0,43.054-2.233,6,6,0,0,0-1.268-11.933Z" style="fill:#63316d"/><path d="M324.45,272.52a17.92,17.92,0,1,0-17.92,17.92A17.945,17.945,0,0,0,324.45,272.52Zm-17.92,5.92a5.925,5.925,0,1,1,5.92-5.92A5.927,5.927,0,0,1,306.53,278.44Z" style="fill:#63316d"/><path d="M267.886,382.936a6,6,0,0,0-6.6-5.332A397.054,397.054,0,0,1,219.5,379.77a386.1,386.1,0,0,1-52.205-3.435,6,6,0,0,0-1.63,11.889A398.1,398.1,0,0,0,219.5,391.77a408.7,408.7,0,0,0,43.054-2.234A6,6,0,0,0,267.886,382.936Z" style="fill:#63316d"/></svg>
