<?xml version="1.0" encoding="utf-8"?>
<!-- Generator: Adobe Illustrator 21.0.0, SVG Export Plug-In . SVG Version: 6.00 Build 0)  -->
<svg version="1.1" id="Layer_1" xmlns="http://www.w3.org/2000/svg" xmlns:xlink="http://www.w3.org/1999/xlink" x="0px" y="0px"
	 viewBox="0 0 1920 1080" style="enable-background:new 0 0 1920 1080;" xml:space="preserve">
<style type="text/css">
	.st0{fill:url(#SVGID_1_);}
	.st1{fill:#5C2985;}
	.st2{clip-path:url(#SVGID_3_);}
	.st3{fill:url(#SVGID_4_);}
	.st4{fill:url(#SVGID_5_);}
	.st5{fill:url(#SVGID_6_);}
	.st6{fill:url(#SVGID_7_);}
	.st7{fill:url(#SVGID_8_);}
	.st8{opacity:0.6;fill:url(#SVGID_9_);}
	.st9{fill:#AAD0FF;}
	.st10{fill:url(#SVGID_10_);}
	.st11{fill:#FFFFFF;}
	.st12{opacity:0.8;fill:#EE17FF;}
</style>
<g>
	
		<radialGradient id="SVGID_1_" cx="562.8188" cy="540" r="810.0967" gradientTransform="matrix(1.1143 0 0 1 332.8311 0)" gradientUnits="userSpaceOnUse">
		<stop  offset="0.3626" style="stop-color:#FFFFFF"/>
		<stop  offset="1" style="stop-color:#E9EEF3"/>
	</radialGradient>
	<rect class="st0" width="1920" height="1080"/>
	<path class="st1" d="M1920,141.7c-188.7,107.9-374.8,78.1-495.4,126.4c-127.2,50.9-96,110.2-239.3,166.3S850,489.8,714.9,514.5
		C579.9,539.2,476.2,708,354.2,697.6s-13.8-61.7-131.9-127.2C147.4,528.9,57.6,479.8,0,447.3v203.6c14,10.1,45.4,29.8,115.8,67.5
		c125.7,67.4-7.7,104,42.1,145.6c49.8,41.6,155.4,99.7,267.2,66.1s214.1-90.1,359.5-86c145.3,4.2,365.6,64.6,486.8,8.5
		c121.3-56.1,243.6-82.1,428.6-41c56,12.4,135.9,9.4,220-1V141.7z"/>
	<g>
		<defs>
			<path id="SVGID_2_" d="M1920,140.7c-188.7,107.9-374.8,78.1-495.4,126.4c-127.2,50.9-96,110.2-239.3,166.3S850,488.8,714.9,513.5
				C579.9,538.2,476.2,707,354.2,696.6s-13.8-61.7-131.9-127.2C147.4,527.9,57.6,478.8,0,446.3v203.6c14,10.1,45.4,29.8,115.8,67.5
				c125.7,67.4-7.7,104,42.1,145.6c49.8,41.6,155.4,99.7,267.2,66.1s214.1-90.1,359.5-86c145.3,4.2,365.6,64.6,486.8,8.5
				c121.3-56.1,243.6-82.1,428.6-41c56,12.4,135.9,9.4,220-1V140.7z"/>
		</defs>
		<clipPath id="SVGID_3_">
			<use xlink:href="#SVGID_2_"  style="overflow:visible;"/>
		</clipPath>
		<g class="st2">
			
				<radialGradient id="SVGID_4_" cx="1396.5002" cy="351.7546" r="801.2526" fx="1317.2882" fy="345.2576" gradientUnits="userSpaceOnUse">
				<stop  offset="0" style="stop-color:#69B517"/>
				<stop  offset="1" style="stop-color:#000000"/>
			</radialGradient>
			<path class="st3" d="M1185.3,434.4C1042,490.5,850,489.8,714.9,514.5c-44.8,8.2-86.2,32.3-125.9,60.4
				c65.4-8.1,140.5-7.1,210,18.1c176,64,436,80,596-10s128-166,268-202c115.8-29.8,174.1,17,257,0.2V141.7
				c-188.7,107.9-374.8,78.1-495.4,126.4C1297.4,319,1328.6,378.3,1185.3,434.4z"/>
			
				<radialGradient id="SVGID_5_" cx="1112.2196" cy="485.6641" r="866.0232" fx="1013.5727" fy="401.9844" gradientUnits="userSpaceOnUse">
				<stop  offset="0" style="stop-color:#87C445"/>
				<stop  offset="1" style="stop-color:#000000"/>
			</radialGradient>
			<path class="st4" d="M497,601c0,0,109-102,313-36s484,97,708-124s274-42,434-108s75,190,75,190s-53,166-56,171s-131,44-288,23
				s-251-85-385-14s-192,197-471,95s-319-130-413-68s-161,16-162-43S43,479-25,451s-34-126-23-129s203-73,251-40S497,601,497,601z"
				/>
			
				<radialGradient id="SVGID_6_" cx="1090.1143" cy="616.867" r="833.3868" fx="995.1849" fy="536.3408" gradientUnits="userSpaceOnUse">
				<stop  offset="0" style="stop-color:#FBB03B"/>
				<stop  offset="1" style="stop-color:#000000"/>
			</radialGradient>
			<path class="st5" d="M-79,465c0,0,206,79,286,181s110,118,196,68s103-56,227-3s325,159,460,103s152-138,315-152s225,56,374,40
				s218-61,218-61l23,123c0,0-41,48-212,24s-343-83-466-40s-179,172-455,96s-374-122-508-43s-121,4-218-72S-66,595-66,595L-79,465z"
				/>
			
				<radialGradient id="SVGID_7_" cx="334.3676" cy="850.3694" r="420.4649" fx="286.4733" fy="809.7419" gradientUnits="userSpaceOnUse">
				<stop  offset="0" style="stop-color:#15FFF5"/>
				<stop  offset="1" style="stop-color:#000000"/>
			</radialGradient>
			<path class="st6" d="M-116,555c6,2,235,96,347,189s-44,112,58,146s118,20,305-48s282,39,492,66s-391-55-558,63s-321,83-402,7
				s19-117-59-177s-198-112-198-112L-116,555z"/>
			
				<radialGradient id="SVGID_8_" cx="1388.8976" cy="230.8122" r="620.2849" fx="1318.2422" fy="170.877" gradientUnits="userSpaceOnUse">
				<stop  offset="0" style="stop-color:#15FFF5"/>
				<stop  offset="1" style="stop-color:#000000"/>
			</radialGradient>
			<path class="st7" d="M1087,394l-127,55c0,0,150,39,308-43s96-140,331-133s333-31,372-80s-7-86-7-86l-377-7l-557,210L1087,394z"/>
		</g>
	</g>
	<g>
		<g>
			<g>
				<linearGradient id="SVGID_9_" gradientUnits="userSpaceOnUse" x1="-61.1075" y1="1545.3473" x2="541.9528" y2="1998.3926">
					<stop  offset="0" style="stop-color:#D4145A"/>
					<stop  offset="8.580691e-02" style="stop-color:#B6114D"/>
					<stop  offset="0.2624" style="stop-color:#800C36"/>
					<stop  offset="0.4345" style="stop-color:#520823"/>
					<stop  offset="0.5981" style="stop-color:#2E0414"/>
					<stop  offset="0.7511" style="stop-color:#150209"/>
					<stop  offset="0.8893" style="stop-color:#050102"/>
					<stop  offset="1" style="stop-color:#000000"/>
				</linearGradient>
				<rect x="73" y="1659" class="st8" width="451" height="313"/>
				<g>
					<rect x="-269" y="1659" class="st9" width="342" height="313"/>
				</g>
			</g>
			<linearGradient id="SVGID_10_" gradientUnits="userSpaceOnUse" x1="1278.2626" y1="2217.8" x2="514.2626" y2="1573.8">
				<stop  offset="0" style="stop-color:#FF7BAC"/>
				<stop  offset="1" style="stop-color:#FF7BAC;stop-opacity:0"/>
			</linearGradient>
			<rect x="524" y="1659" class="st10" width="554" height="313"/>
			<text transform="matrix(1 0 0 1 112.9666 1758.7988)"><tspan x="0" y="0" class="st11" style="font-family:'Montserrat-Bold'; font-size:61.957px;">Make </tspan><tspan x="0" y="74.3" class="st11" style="font-family:'Montserrat-Bold'; font-size:61.957px;">Your Page</tspan><tspan x="0" y="148.7" class="st11" style="font-family:'Montserrat-Bold'; font-size:61.957px;">Awesome</tspan></text>
			<text transform="matrix(1 0 0 1 -185.6033 1806.876)"><tspan x="0" y="0" class="st11" style="font-family:'Montserrat-Bold'; font-size:28px;">Lorem</tspan><tspan x="0" y="33.6" class="st11" style="font-family:'Montserrat-Bold'; font-size:28px;">Ipsum Dolor</tspan></text>
			<rect x="607.8" y="1781.8" style="fill:none;" width="386.4" height="137.2"/>
			<text transform="matrix(1 0 0 1 607.8164 1795.1909)"><tspan x="0" y="0" class="st11" style="font-family:'Montserrat-Regular'; font-size:18px;">Lorem ipsum dolor sit amet, consectetuer </tspan><tspan x="0" y="28" class="st11" style="font-family:'Montserrat-Regular'; font-size:18px;">adipiscing elit, sed diam nonummy nibh </tspan><tspan x="0" y="56" class="st11" style="font-family:'Montserrat-Regular'; font-size:18px;">euismod tincidunt ut.</tspan></text>
			<g>
				<path class="st12" d="M1299.5,1865L1299.5,1865c-27.3,0-49.5-22.2-49.5-49.5l0,0c0-27.3,22.2-49.5,49.5-49.5h0
					c27.3,0,49.5,22.2,49.5,49.5l0,0C1349,1842.8,1326.8,1865,1299.5,1865z"/>
				<g>
					
						<rect x="1297" y="1805.3" transform="matrix(0.7071 -0.7071 0.7071 0.7071 -900.8877 1449.7008)" class="st11" width="5" height="14"/>
					
						<rect x="1297" y="1811.7" transform="matrix(-0.7071 -0.7071 0.7071 -0.7071 932.3826 4023.5696)" class="st11" width="5" height="14"/>
				</g>
			</g>
		</g>
	</g>
</g>
</svg>
