<?xml version="1.0" encoding="UTF-8"?>
<svg width="40px" height="40px" viewBox="0 0 40 40" version="1.1" xmlns="http://www.w3.org/2000/svg" xmlns:xlink="http://www.w3.org/1999/xlink">
    <!-- Generator: Sketch 55.1 (78136) - https://sketchapp.com -->
    <title>globeBig</title>
    <desc>Created with Sketch.</desc>
    <g id="Page-1" stroke="none" stroke-width="1" fill="none" fill-rule="evenodd">
        <g id="globeBig" fill-rule="nonzero">
            <path d="M6.64550782,19.3463135 L6.6387939,19.3463135 C6.2716675,19.3441773 5.97503664,19.0457153 5.97564508,18.6785889 C5.97625734,18.3111572 6.27502438,18.013916 6.64215086,18.013916 C7.00927733,18.013916 7.3077392,18.3111572 7.3086566,18.6785889 C7.30926513,19.0457153 7.01263427,19.3447876 6.64550782,19.3463135 Z" id="Path" fill="#69B517"></path>
            <path d="M33.522339,19.3463135 L33.515625,19.3463135 C33.1484986,19.3441773 32.8518676,19.0457153 32.8524763,18.6776733 C32.8530884,18.3105469 33.1518554,18.0133056 33.5189848,18.0133056 C33.8861084,18.0133056 34.1845704,18.3105469 34.1854933,18.6776733 C34.1867066,19.0457153 33.8900758,19.3441773 33.522339,19.3463135 L33.522339,19.3463135 Z" id="Path" fill="#69B517"></path>
            <path d="M39.3334965,19.9926758 C39.3341064,25.1187134 37.2982788,30.0350952 33.6743164,33.659668 C30.050354,37.2842408 25.1333618,39.3203736 20.0073242,39.3188503 C19.6740723,39.3188503 19.3408203,39.3121338 19.0142822,39.2922974 L19.0008545,39.2922974 C8.732605,38.757019 0.680847187,30.2755738 0.680847187,19.9926758 C0.680847187,9.7097778 8.732605,1.2283325 19.0008545,0.69305422 L19.0142822,0.69305422 C19.3408203,0.673217813 19.6740723,0.666503496 20.0073242,0.666503496 C25.1333618,0.665893594 30.0494384,2.70172118 33.6743164,6.3256836 C37.2988892,9.949646 39.3341064,14.8672485 39.3334965,19.9926758 Z" id="Path" fill="#C9DDB3"></path>
            <path d="M37.3342896,19.9926758 C37.3342896,30.2749634 29.2831422,38.757019 19.0142822,39.2922974 L19.0008545,39.2922974 C8.732605,38.757019 0.680847187,30.2755738 0.680847187,19.9926758 C0.680847187,9.7097778 8.732605,1.2283325 19.0008545,0.69305422 L19.0142822,0.69305422 C29.2825318,1.2283325 37.3342896,9.7103882 37.3342896,19.9926758 Z" id="Path" fill="#E8EDFC"></path>
            <path d="M23.5192872,28.0297852 C21.4953614,29.7537232 18.5189819,29.7537232 16.4950562,28.0297852 L16.6085815,27.8897094 C17.3348999,26.7095946 18.6212158,25.9906006 20.0073242,25.9906006 C21.3934326,25.9906006 22.6794434,26.7095946 23.4060668,27.8897094 L23.5192872,28.0297852 Z" id="Path" fill="#E8EDFC"></path>
            <path d="M19.0008545,39.2922974 L19.0142822,39.2922974 C19.3408203,39.3121338 19.6740723,39.3188476 20.0073242,39.3188476 C20.3469848,39.3188476 20.684204,39.3103028 21.0202026,39.2922974 L21.000061,39.2922974 C10.7321167,38.757019 2.6803589,30.2755738 2.6803589,19.9926758 C2.6803589,9.7097778 10.7321167,1.2283325 21.000061,0.69305422 L21.0195922,0.69305422 C20.684204,0.67565922 20.3463746,0.66711422 20.0073242,0.666503906 C19.6740723,0.666503906 19.3408203,0.673217813 19.0142822,0.69305422 L19.0008545,0.69305422 C8.732605,1.2283325 0.680847187,9.7103882 0.680847187,19.9926758 C0.680847187,30.2749634 8.732605,38.757019 19.0008545,39.2922974 Z" id="Path" fill="#FFFFFF"></path>
            <g id="Group" fill="#69B517">
                <path d="M19.984436,40 C14.7918701,40 9.70153813,37.9681396 5.86639406,34.133606 C0.127258281,28.3947754 -1.57409672,19.8413086 1.53259281,12.3422241 C4.63897704,4.8449707 11.8896485,2.84217094e-14 20.0045776,2.84217094e-14 L20.0073242,2.84217094e-14 C25.3479004,2.84217094e-14 30.368042,2.07977296 34.143982,5.8557129 C37.9199218,9.6316528 40,14.65271 40,19.9926758 C40.0006104,28.1097412 35.1556396,35.361023 27.6571656,38.467102 C25.1693726,39.498291 22.5637818,40 19.984436,40 Z M20.0045776,1.33270265 C12.4301147,1.33270265 5.66314696,5.85449218 2.76367188,12.8524781 C-0.136108437,19.8513794 1.45202641,27.835083 6.80877687,33.1912232 C12.1655273,38.5479736 20.1486206,40.1367188 27.1472168,37.2357178 C34.1461182,34.3374634 38.6676024,27.569275 38.6669922,19.9926758 C38.6669922,15.0085449 36.7263794,10.3228759 33.2015992,6.79809567 C29.6777344,3.27423094 24.9920654,1.33270265 20.0073242,1.33270265 C20.006714,1.33270265 20.005188,1.33270265 20.0045776,1.33270265 Z" id="Shape"></path>
                <path d="M20.0073242,39.9853516 C13.7600708,39.9853516 8.67797853,31.0165406 8.67797853,19.9926758 C8.67797853,8.968811 13.7600708,0 20.0073242,0 C26.2548828,0 31.3363648,8.968811 31.3363648,19.9926758 C31.3363648,31.0165406 26.2542724,39.9853516 20.0073242,39.9853516 Z M20.0073242,1.33270265 C14.4952392,1.33270265 10.0109863,9.70367427 10.0109863,19.9926758 C10.0109863,30.2816772 14.4952392,38.6523438 20.0073242,38.6523438 C25.519104,38.6523438 30.0036622,30.2816772 30.0036622,19.9926758 C30.0036622,9.70367427 25.519104,1.33270265 20.0073242,1.33270265 Z" id="Shape"></path>
                <path d="M20.2197266,8.66363527 C20.131836,8.66363527 20.0439454,8.66363527 19.956665,8.66363527 C17.2363281,8.66363527 14.4851685,8.50280767 11.7788696,8.18573 C9.84039307,7.96051027 7.89154053,7.62451173 5.98907468,7.18658447 C5.63049312,7.10418707 5.40649414,6.7462158 5.4891968,6.3876343 C5.57189938,6.02905274 5.92834468,5.80718992 6.28814696,5.88775632 C8.14361567,6.3143921 10.0430297,6.64215086 11.9335937,6.86157227 C14.6292114,7.17803953 17.4002075,7.32269287 20.0793458,7.3306274 C22.7609254,7.33673093 25.439148,7.1826172 28.086853,6.87561033 C29.9880982,6.66564938 31.8930054,6.34246828 33.7527466,5.91522218 C34.1107178,5.83312984 34.468689,6.0565186 34.5510864,6.41510008 C34.633789,6.77337647 34.4091796,7.13134767 34.0509032,7.21405033 C32.1414184,7.65258793 30.1849366,7.984314 28.2369996,8.19976807 C25.5877686,8.5083008 22.8894042,8.66363527 20.2197266,8.66363527 Z" id="Path"></path>
                <path d="M6.64550782,19.3463135 L6.6387939,19.3463135 C6.2710571,19.3463135 5.97229,19.0475464 5.97229,18.6798095 C5.97229,18.3120727 6.2710571,18.0133056 6.6387939,18.0133056 C7.0065308,18.0133056 7.30865473,18.3120727 7.30865473,18.6798095 C7.30865473,19.0475464 7.0132446,19.3463135 6.64550782,19.3463135 Z" id="Path"></path>
                <path d="M33.522339,19.3463135 L33.515625,19.3463135 C33.1469726,19.3463135 32.849121,19.0475464 32.849121,18.6798095 C32.849121,18.3120727 33.1469726,18.0133056 33.515625,18.0133056 C33.8842774,18.0133056 34.1854858,18.3120727 34.1854858,18.6798095 C34.1854858,19.0475464 33.8900758,19.3463135 33.522339,19.3463135 L33.522339,19.3463135 Z" id="Path"></path>
                <path d="M19.9398804,32.6547438 C17.076416,32.6547438 14.1827392,32.4752808 11.3418579,32.1228028 C8.5601806,31.8023682 5.78979492,31.2124634 3.11340328,30.371399 C2.76214602,30.2609254 2.56683352,29.887085 2.67761234,29.5358276 C2.78808594,29.1845704 3.1640625,28.9907836 3.5131836,29.1000366 C6.10961914,29.9163818 8.79669187,30.4873658 11.5002441,30.800171 C14.3380737,31.152649 17.1948242,31.315918 20.079956,31.3217164 C22.8808594,31.3305664 25.7189942,31.1584472 28.5046386,30.8200074 C31.1990356,30.5114746 33.8787842,29.9523926 36.4730836,29.1586304 C36.8258668,29.0481568 37.1981812,29.2486572 37.305603,29.600525 C37.4136352,29.9523926 37.2155762,30.3256226 36.8637086,30.4327392 C34.1912842,31.2512208 31.4315796,31.8270874 28.6599732,32.1435546 C25.8258056,32.4874878 22.932129,32.6559448 20.0793458,32.6547438 C20.0332642,32.6547438 19.9865723,32.6547438 19.9398804,32.6547438 Z" id="Path"></path>
                <path d="M19.8645019,20.65979 C16.3232422,20.65979 12.7539063,20.3811646 9.25445553,19.8315429 C8.35479733,19.6966553 7.44049067,19.5300293 6.54022218,19.3389892 C6.52832032,19.3374633 6.5167236,19.3350219 6.5054321,19.3328858 C4.5336914,18.9297485 2.57019046,18.3807373 0.67108156,17.7020264 C0.324401874,17.578125 0.143737813,17.1969605 0.267944374,16.8505859 C0.392456094,16.5039063 0.773010233,16.3241577 1.11938477,16.4474487 C2.9501343,17.1011353 4.84161374,17.6309204 6.74224853,18.0212403 C6.75689693,18.0233765 6.7721558,18.0261231 6.7861938,18.0288696 C7.67028813,18.2180786 8.56933593,18.3813477 9.45770267,18.5144043 C12.9623413,19.0649414 16.50177,19.3383789 20.079956,19.3267822 C23.5760498,19.3408203 27.1044922,19.0722656 30.5566406,18.5418701 C31.5231324,18.3911133 32.4734496,18.218689 33.3789062,18.0279541 C33.3935546,18.0245972 33.4082032,18.0227661 33.4228516,18.0200195 C35.2770996,17.6376343 37.1221924,17.1258545 38.9068604,16.4987183 C39.25354,16.3760376 39.6347046,16.5591431 39.7558594,16.9064331 C39.87854,17.2537231 39.6954346,17.6342773 39.3481446,17.7560425 C37.4969482,18.4066773 35.5822754,18.9370727 33.6569214,19.3328858 C33.6434936,19.3356323 33.6309814,19.3374633 33.6175538,19.3395996 C32.6992798,19.5321655 31.737671,19.7067261 30.7592774,19.8587036 C27.2366332,20.39917 23.626709,20.6552124 20.0793458,20.6591796 C20.0079346,20.6591796 19.9359131,20.65979 19.8645019,20.65979 Z" id="Path"></path>
                <path d="M20.0073242,23.3248902 C19.6392822,23.3248902 19.3408203,23.0270386 19.3408203,22.6583862 L19.3408203,0.666503906 C19.3408203,0.298461876 19.6392822,0 20.0073242,0 C20.375061,0 20.673523,0.298461876 20.673523,0.666503906 L20.673523,22.6583862 C20.673523,23.0270386 20.375061,23.3248902 20.0073242,23.3248902 Z" id="Path"></path>
                <path d="M20.0073242,39.9853516 C19.6392822,39.9853516 19.3408203,39.5026656 19.3408203,38.9052428 L19.3408203,22.7055908 C19.3408203,22.1086624 19.6392822,21.6259766 20.0073242,21.6259766 C20.375061,21.6259766 20.673523,22.1086624 20.673523,22.7055908 L20.673523,38.9052428 C20.673523,39.5026656 20.375061,39.9853516 20.0073242,39.9853516 Z" id="Path"></path>
            </g>
            <path d="M0.443115234,15.8569336 C1.07482906,12.9244995 2.35229492,10.1702881 4.18304446,7.7944946 C5.1159668,6.58966062 6.17767336,5.49072266 7.34985353,4.51690672 C8.5360718,3.56079102 9.82299807,2.7362061 11.1883545,2.05993656 C13.934021,0.715637187 16.9497681,0.0112914844 20.0073242,0 L20.0073242,1.33270265 C17.1536255,1.34429929 14.3399047,2.00134282 11.7776489,3.25622562 C10.5032349,3.88793946 9.3017578,4.65698242 8.19427493,5.5493164 C7.10052493,6.4590454 6.10900876,7.48535153 5.2380371,8.60961913 C3.52996828,10.8261109 2.33764648,13.3956909 1.74713133,16.1312867 L0.443115234,15.8569336 Z" id="Path" fill="#FFFFFF"></path>
            <path d="M2.06115718,12.8085327 C1.89575195,12.7432251 1.71051023,12.7493286 1.54937742,12.8253173 C1.388855,12.9013062 1.26678469,13.0410767 1.21215821,13.2104492 C0.90148922,14.0762329 0.644226094,14.9597168 0.442504844,15.8569336 L1.74652101,16.1312867 C1.93573,15.295105 2.17590328,14.4708251 2.46551516,13.6630249 C2.57415774,13.3163453 2.39837648,12.9446411 2.06115718,12.8085327 Z" id="Path" fill="#69B517"></path>
            <path d="M20.0073242,1.33270265 L20.0073242,0 C16.9497681,0.0112914844 13.934021,0.715637187 11.1883545,2.06054688 C9.82299807,2.73712156 8.5360718,3.5614014 7.34985353,4.51782226 C6.17767336,5.49133296 5.1159668,6.59027102 4.18304446,7.795105 C4.03442382,7.97027587 3.89587406,8.15368653 3.76647954,8.3444214 C3.66333008,8.49151613 3.62335204,8.67340087 3.65509032,8.85070793 C3.68713376,9.02740473 3.7878418,9.18457033 3.93585204,9.28649907 C4.23431398,9.48974607 4.64019774,9.41650393 4.84893796,9.1226196 C4.96887204,8.9447022 5.0985718,8.77410887 5.2380371,8.61083987 C6.10900876,7.48596187 7.09991453,6.4602661 8.19427493,5.5505371 C9.3017578,4.65820312 10.5032349,3.88916016 11.7776489,3.25744626 C14.3399047,2.00195312 17.1536255,1.34429929 20.0073242,1.33270265 Z" id="Path" fill="#69B517"></path>
            <path d="M2.32025148,10.6893921 C2.23114016,10.8465577 2.2103882,11.0339355 2.2631836,11.2072754 L2.31903078,11.3259887 C2.34161376,11.3659668 2.36968992,11.4016723 2.40173344,11.4343262 C2.42767336,11.4685059 2.45819094,11.4984131 2.49298094,11.5237427 C2.52960204,11.5496827 2.56774906,11.5731812 2.60772704,11.5936279 C2.76550296,11.6677856 2.94494626,11.6796875 3.11065672,11.6278077 C3.19061282,11.5957641 3.26538086,11.5530395 3.33282468,11.5005493 C3.53790282,11.3385009 3.62518312,11.0687256 3.55255124,10.8172608 C3.52539062,10.7348633 3.4832764,10.6573486 3.42803954,10.5895996 C3.26538086,10.3735351 2.986145,10.2807617 2.72705078,10.3555297 C2.55493164,10.4129028 2.41027828,10.5316163 2.32025148,10.6893921 Z" id="Path" fill="#69B517"></path>
        </g>
    </g>
</svg>