<?xml version="1.0" encoding="UTF-8"?>
<svg width="20px" height="20px" viewBox="0 0 20 20" version="1.1" xmlns="http://www.w3.org/2000/svg" xmlns:xlink="http://www.w3.org/1999/xlink">
    <!-- Generator: Sketch 55.1 (78136) - https://sketchapp.com -->
    <title>globe</title>
    <desc>Created with Sketch.</desc>
    <g id="Page-1" stroke="none" stroke-width="1" fill="none" fill-rule="evenodd">
        <g id="globe" fill-rule="nonzero">
            <path d="M3.32275391,9.67315672 L3.31939695,9.67315672 C3.13583375,9.67208863 2.98751832,9.52285766 2.98782301,9.33929445 C2.98812867,9.15557859 3.13751219,9.00695801 3.32107543,9.00695801 C3.50463867,9.00695801 3.65386961,9.15557859 3.65432785,9.33929445 C3.65463258,9.52285766 3.50631715,9.67239379 3.32275391,9.67315672 Z" id="Path" fill="#69B517"></path>
            <path d="M16.7611695,9.67315672 L16.7578125,9.67315672 C16.5742493,9.67208863 16.4259338,9.52285766 16.4262386,9.33883668 C16.4265442,9.15527344 16.5759277,9.00665281 16.759491,9.00665281 C16.9430542,9.00665281 17.0922852,9.15527344 17.0927448,9.33883668 C17.0933533,9.52285766 16.9450379,9.67208863 16.7611695,9.67315672 L16.7611695,9.67315672 Z" id="Path" fill="#69B517"></path>
            <path d="M19.6667481,9.99633789 C19.6670532,12.5593567 18.6491394,15.0175476 16.8371582,16.829834 C15.025177,18.6421204 12.5666809,19.6601868 10.0036621,19.6594243 C9.83703613,19.6594243 9.67041016,19.6560669 9.50714109,19.6461487 L9.50042727,19.6461487 C4.3663025,19.3785095 0.340423594,15.1377869 0.340423594,9.99633789 C0.340423594,4.85488891 4.3663025,0.61416625 9.50042727,0.346527109 L9.50714109,0.346527109 C9.67041016,0.336608906 9.83703613,0.333251885 10.0036621,0.333251885 C12.5666809,0.332946797 15.0247192,1.35086059 16.8371582,3.1628418 C18.6494446,4.97482301 19.6670532,7.43362426 19.6667481,9.99633789 Z" id="Path" fill="#C9DDB3"></path>
            <path d="M18.6671448,9.99633789 C18.6671448,15.1374817 14.6415711,19.3785095 9.50714109,19.6461487 L9.50042727,19.6461487 C4.3663025,19.3785095 0.340423594,15.1377869 0.340423594,9.99633789 C0.340423594,4.85488891 4.3663025,0.61416625 9.50042727,0.346527109 L9.50714109,0.346527109 C14.6412659,0.61416625 18.6671448,4.8551941 18.6671448,9.99633789 Z" id="Path" fill="#E8EDFC"></path>
            <path d="M11.7596436,14.0148926 C10.7476807,14.8768616 9.25949098,14.8768616 8.24752809,14.0148926 L8.30429078,13.9448547 C8.66744996,13.3547973 9.31060789,12.9953003 10.0036621,12.9953003 C10.6967163,12.9953003 11.3397217,13.3547973 11.7030334,13.9448547 L11.7596436,14.0148926 Z" id="Path" fill="#E8EDFC"></path>
            <path d="M9.50042727,19.6461487 L9.50714109,19.6461487 C9.67041016,19.6560669 9.83703613,19.6594238 10.0036621,19.6594238 C10.1734924,19.6594238 10.342102,19.6551514 10.5101013,19.6461487 L10.5000305,19.6461487 C5.36605836,19.3785095 1.34017945,15.1377869 1.34017945,9.99633789 C1.34017945,4.85488891 5.36605836,0.61416625 10.5000305,0.346527109 L10.5097961,0.346527109 C10.342102,0.337829609 10.1731873,0.333557109 10.0036621,0.333251953 C9.83703613,0.333251953 9.67041016,0.336608906 9.50714109,0.346527109 L9.50042727,0.346527109 C4.3663025,0.61416625 0.340423594,4.8551941 0.340423594,9.99633789 C0.340423594,15.1374817 4.3663025,19.3785095 9.50042727,19.6461487 Z" id="Path" fill="#FFFFFF"></path>
            <g id="Group" fill="#69B517">
                <path d="M9.99221801,20 C7.39593508,20 4.85076906,18.9840698 2.93319703,17.066803 C0.0636291406,14.1973877 -0.787048359,9.9206543 0.766296406,6.17111207 C2.31948852,2.42248535 5.94482422,2.84217094e-14 10.0022888,2.84217094e-14 L10.0036621,2.84217094e-14 C12.6739502,2.84217094e-14 15.184021,1.03988648 17.071991,2.92785645 C18.9599609,4.81582641 20,7.326355 20,9.99633789 C20.0003052,14.0548706 17.5778198,17.6805115 13.8285828,19.233551 C12.5846863,19.7491455 11.2818909,20 9.99221801,20 Z M10.0022888,0.666351328 C6.21505738,0.666351328 2.83157348,2.92724609 1.38183594,6.42623902 C-0.0680542187,9.92568969 0.726013203,13.9175415 3.40438844,16.5956116 C6.08276367,19.2739868 10.0743103,20.0683594 13.5736084,18.6178589 C17.0730591,17.1687317 19.3338012,13.7846375 19.3334961,9.99633789 C19.3334961,7.50427246 18.3631897,5.16143797 16.6007996,3.39904785 C14.8388672,1.63711547 12.4960327,0.666351328 10.0036621,0.666351328 C10.003357,0.666351328 10.002594,0.666351328 10.0022888,0.666351328 Z" id="Shape"></path>
                <path d="M10.0036621,19.9926758 C6.88003539,19.9926758 4.33898926,15.5082703 4.33898926,9.99633789 C4.33898926,4.48440551 6.88003539,0 10.0036621,0 C13.1274414,0 15.6681824,4.48440551 15.6681824,9.99633789 C15.6681824,15.5082703 13.1271362,19.9926758 10.0036621,19.9926758 Z M10.0036621,0.666351328 C7.24761961,0.666351328 5.00549316,4.85183715 5.00549316,9.99633789 C5.00549316,15.1408386 7.24761961,19.3261719 10.0036621,19.3261719 C12.759552,19.3261719 15.0018311,15.1408386 15.0018311,9.99633789 C15.0018311,4.85183715 12.759552,0.666351328 10.0036621,0.666351328 Z" id="Shape"></path>
                <path d="M10.1098633,4.33181762 C10.065918,4.33181762 10.0219727,4.33181762 9.9783325,4.33181762 C8.61816406,4.33181762 7.24258422,4.25140383 5.8894348,4.092865 C4.92019652,3.98025512 3.94577027,3.81225586 2.99453734,3.59329223 C2.81524656,3.55209352 2.70324707,3.37310789 2.7445984,3.19381715 C2.78594969,3.01452637 2.96417234,2.90359496 3.14407348,2.94387816 C4.07180785,3.15719605 5.02151488,3.32107543 5.96679688,3.43078613 C7.3146057,3.58901977 8.70010375,3.66134645 10.0396729,3.66531371 C11.3804627,3.66836547 12.719574,3.59130859 14.0434265,3.43780516 C14.9940491,3.33282469 15.9465027,3.17123414 16.8763733,2.95761109 C17.0553589,2.91656492 17.2343445,3.0282593 17.2755432,3.20755004 C17.3168945,3.38668824 17.2045898,3.56567383 17.0254516,3.60702516 C16.0707092,3.82629395 15.0924683,3.99215699 14.1184998,4.09988402 C12.7938843,4.25415039 11.4447021,4.33181762 10.1098633,4.33181762 Z" id="Path"></path>
                <path d="M3.32275391,9.67315672 L3.31939695,9.67315672 C3.13552855,9.67315672 2.986145,9.5237732 2.986145,9.33990477 C2.986145,9.15603637 3.13552855,9.00665281 3.31939695,9.00665281 C3.50326539,9.00665281 3.65432738,9.15603637 3.65432738,9.33990477 C3.65432738,9.5237732 3.5066223,9.67315672 3.32275391,9.67315672 Z" id="Path"></path>
                <path d="M16.7611695,9.67315672 L16.7578125,9.67315672 C16.5734863,9.67315672 16.4245605,9.5237732 16.4245605,9.33990477 C16.4245605,9.15603637 16.5734863,9.00665281 16.7578125,9.00665281 C16.9421387,9.00665281 17.0927429,9.15603637 17.0927429,9.33990477 C17.0927429,9.5237732 16.9450379,9.67315672 16.7611695,9.67315672 L16.7611695,9.67315672 Z" id="Path"></path>
                <path d="M9.9699402,16.3273654 C8.53820801,16.3273654 7.09136961,16.2376404 5.67092895,16.0614014 C4.28009031,15.9011841 2.89489746,15.6062317 1.55670164,15.1856995 C1.38107301,15.1304627 1.28341676,14.9435425 1.33880617,14.7679138 C1.39404297,14.5922852 1.58203125,14.4953918 1.7565918,14.5500183 C3.05480957,14.9581909 4.39834594,15.2436829 5.75012207,15.4000855 C7.16903687,15.5763245 8.59741211,15.657959 10.039978,15.6608582 C11.4404297,15.6652832 12.8594971,15.5792236 14.2523193,15.4100037 C15.5995178,15.2557373 16.9393921,14.9761963 18.2365418,14.5793152 C18.4129334,14.5240784 18.5990906,14.6243286 18.6528015,14.8002625 C18.7068176,14.9761963 18.6077881,15.1628113 18.4318543,15.2163696 C17.0956421,15.6256104 15.7157898,15.9135437 14.3299866,16.0717773 C12.9129028,16.2437439 11.4660645,16.3279724 10.0396729,16.3273654 C10.0166321,16.3273654 9.99328613,16.3273654 9.9699402,16.3273654 Z" id="Path"></path>
                <path d="M9.93225098,10.329895 C8.16162109,10.329895 6.37695313,10.1905823 4.62722777,9.91577148 C4.17739867,9.84832766 3.72024535,9.76501465 3.27011109,9.66949461 C3.26416016,9.66873168 3.2583618,9.66751098 3.25271605,9.66644289 C2.2668457,9.46487426 1.28509523,9.19036867 0.335540781,8.8510132 C0.162200937,8.7890625 0.0718689062,8.59848023 0.133972187,8.42529297 C0.196228047,8.25195312 0.386505117,8.16207887 0.559692383,8.22372437 C1.47506715,8.55056762 2.42080687,8.8154602 3.37112426,9.01062012 C3.37844848,9.01168824 3.38607789,9.01306152 3.39309691,9.0144348 C3.83514406,9.1090393 4.28466797,9.19067383 4.72885133,9.25720215 C6.48117066,9.5324707 8.250885,9.66918945 10.039978,9.66339109 C11.7880249,9.67041016 13.5522461,9.53613281 15.2783203,9.27093508 C15.7615662,9.19555664 16.2367248,9.10934449 16.6894531,9.01397703 C16.6967773,9.01229859 16.7041016,9.01138305 16.7114258,9.01000977 C17.6385498,8.81881715 18.5610962,8.56292727 19.4534302,8.24935914 C19.62677,8.18801879 19.8173523,8.27957152 19.8779297,8.45321656 C19.93927,8.62686156 19.8477173,8.81713867 19.6740723,8.87802125 C18.7484741,9.20333863 17.7911377,9.46853637 16.8284607,9.66644289 C16.8217468,9.66781617 16.8154907,9.66873168 16.8087769,9.6697998 C16.3496399,9.76608277 15.8688355,9.85336305 15.3796387,9.9293518 C13.6183166,10.199585 11.8133545,10.3276062 10.0396729,10.3295898 C10.0039673,10.3295898 9.96795656,10.329895 9.93225098,10.329895 Z" id="Path"></path>
                <path d="M10.0036621,11.6624451 C9.81964109,11.6624451 9.67041016,11.5135193 9.67041016,11.3291931 L9.67041016,0.333251953 C9.67041016,0.149230938 9.81964109,0 10.0036621,0 C10.1875305,0 10.3367615,0.149230938 10.3367615,0.333251953 L10.3367615,11.3291931 C10.3367615,11.5135193 10.1875305,11.6624451 10.0036621,11.6624451 Z" id="Path"></path>
                <path d="M10.0036621,19.9926758 C9.81964109,19.9926758 9.67041016,19.7513328 9.67041016,19.4526214 L9.67041016,11.3527954 C9.67041016,11.0543312 9.81964109,10.8129883 10.0036621,10.8129883 C10.1875305,10.8129883 10.3367615,11.0543312 10.3367615,11.3527954 L10.3367615,19.4526214 C10.3367615,19.7513328 10.1875305,19.9926758 10.0036621,19.9926758 Z" id="Path"></path>
            </g>
            <path d="M0.221557617,7.9284668 C0.537414531,6.46224977 1.17614746,5.08514406 2.09152223,3.8972473 C2.5579834,3.29483031 3.08883668,2.74536133 3.67492676,2.25845336 C4.2680359,1.78039551 4.91149902,1.36810305 5.59417727,1.02996828 C6.96701051,0.357818594 8.47488402,0.00564574219 10.0036621,0 L10.0036621,0.666351328 C8.57681273,0.672149648 7.16995238,1.00067141 5.88882445,1.62811281 C5.25161742,1.94396973 4.65087891,2.32849121 4.09713746,2.7746582 C3.55026246,3.2295227 3.05450438,3.74267578 2.61901855,4.30480957 C1.76498414,5.41305543 1.16882324,6.69784547 0.873565664,8.06564332 L0.221557617,7.9284668 Z" id="Path" fill="#FFFFFF"></path>
            <path d="M1.03057859,6.40426637 C0.947875977,6.37161254 0.855255117,6.3746643 0.774688711,6.41265867 C0.6944275,6.45065309 0.633392344,6.52053832 0.606079102,6.60522461 C0.450744609,7.03811645 0.322113047,7.4798584 0.221252422,7.9284668 L0.873260508,8.06564332 C0.967865,7.6475525 1.08795164,7.23541258 1.23275758,6.83151246 C1.28707887,6.65817262 1.19918824,6.47232055 1.03057859,6.40426637 Z" id="Path" fill="#69B517"></path>
            <path d="M10.0036621,0.666351328 L10.0036621,0 C8.47488402,0.00564574219 6.96701051,0.357818594 5.59417727,1.03027344 C4.91149902,1.36856078 4.2680359,1.7807007 3.67492676,2.25891113 C3.08883668,2.74566648 2.5579834,3.29513551 2.09152223,3.8975525 C2.01721191,3.98513793 1.94793703,4.07684328 1.88323977,4.1722107 C1.83166504,4.24575805 1.81167602,4.33670043 1.82754516,4.42535398 C1.84356688,4.51370238 1.8939209,4.59228516 1.96792602,4.64324953 C2.11715699,4.74487305 2.32009887,4.70825195 2.42446898,4.5613098 C2.48443602,4.47235109 2.5492859,4.38705445 2.61901855,4.30541992 C3.05450438,3.74298094 3.54995727,3.23013305 4.09713746,2.77526855 C4.65087891,2.32910156 5.25161742,1.94458008 5.88882445,1.62872313 C7.16995238,1.00097656 8.57681273,0.672149648 10.0036621,0.666351328 Z" id="Path" fill="#69B517"></path>
            <path d="M1.16012574,5.34469605 C1.11557008,5.42327883 1.1051941,5.51696777 1.1315918,5.6036377 L1.15951539,5.66299438 C1.17080688,5.6829834 1.18484496,5.70083617 1.20086672,5.71716309 C1.21383668,5.73425293 1.22909547,5.74920656 1.24649047,5.76187133 C1.26480102,5.77484133 1.28387453,5.78659059 1.30386352,5.79681398 C1.38275148,5.83389281 1.47247313,5.83984375 1.55532836,5.81390383 C1.59530641,5.79788207 1.63269043,5.77651977 1.66641234,5.75027465 C1.76895141,5.66925047 1.81259156,5.53436281 1.77627562,5.40863039 C1.76269531,5.36743164 1.7416382,5.3286743 1.71401977,5.2947998 C1.63269043,5.18676758 1.4930725,5.14038086 1.36352539,5.17776488 C1.27746582,5.20645141 1.20513914,5.26580813 1.16012574,5.34469605 Z" id="Path" fill="#69B517"></path>
        </g>
    </g>
</svg>