<?xml version="1.0" encoding="UTF-8"?>
<svg width="207px" height="41px" viewBox="0 0 207 41" version="1.1" xmlns="http://www.w3.org/2000/svg" xmlns:xlink="http://www.w3.org/1999/xlink">
    <!-- Generator: Sketch 55.1 (78136) - https://sketchapp.com -->
    <title>Group</title>
    <desc>Created with Sketch.</desc>
    <g id="Page-1" stroke="none" stroke-width="1" fill="none" fill-rule="evenodd">
        <g id="Group" transform="translate(0.000000, -5.000000)">
            <text id="Latesmoore" font-family="SpinnenkopDEMO-Regular, Spinnenkop DEMO" font-size="42.2535211" font-weight="normal">
                <tspan x="61.971831" y="37" fill="#69B517">Lat</tspan>
                <tspan x="102.746479" y="37" fill="#2E3830">esmoore</tspan>
            </text>
            <path d="M54.9295775,29.0394398 C54.4812771,29.8267822 54.0008509,30.5921112 53.4882989,31.3354269 C47.5844875,39.9194399 37.8698545,45.0510474 27.4867178,45.0704225 C17.1035812,45.0896882 7.37010694,39.9942686 1.43470734,31.4322854 C0.923615665,30.6985088 0.445379886,29.9438195 0,29.1682176 C0.107741985,29.0735649 0.229725816,28.9966657 0.361414825,28.94038 C0.822127461,29.7027739 1.3135056,30.441687 1.83554923,31.1571192 C7.81872973,39.4001807 17.3706264,44.2618191 27.5230688,44.2313216 C37.6755111,44.2008242 47.1983187,39.2818863 53.1323601,31.0030261 C53.6273889,30.3132761 54.0950378,29.6033472 54.5353067,28.8732394 C54.6747971,28.9068829 54.8079446,28.9630097 54.9295775,29.0394398 L54.9295775,29.0394398 Z" id="Path" fill="#69B517" fill-rule="nonzero"></path>
            <path d="M54.9295775,26.2225384 C54.4812771,27.0098808 54.0008509,27.7752098 53.4882989,28.5185255 C47.5844875,37.1025385 37.8698545,42.234146 27.4867178,42.2535211 C17.1035812,42.2727868 7.37010694,37.1773672 1.43470734,28.615384 C0.923615665,27.8816074 0.445379886,27.1269181 0,26.3513162 C0.107741985,26.2566635 0.229725816,26.1797643 0.361414825,26.1234786 C0.822127461,26.8858725 1.3135056,27.6247856 1.83554923,28.3402178 C7.81872973,36.5832793 17.3706264,41.4449176 27.5230688,41.4144202 C37.6755111,41.3839228 47.1983187,36.4649849 53.1323601,28.1861247 C53.6273889,27.4963747 54.0950378,26.7864458 54.5353067,26.056338 C54.6747971,26.0899815 54.8079446,26.1461083 54.9295775,26.2225384 L54.9295775,26.2225384 Z" id="Path" fill="#69B517" fill-rule="nonzero"></path>
            <path d="M8.45070423,17.0356058 L8.57452814,17.2671161 C10.3254418,20.5854307 11.4550635,23.1267585 11.9199463,24.1595694 C14.037987,28.8616602 15.0959212,31.2137627 15.7367643,31.9992064 C16.4894834,32.9220763 19.2776939,36.3397605 23.6006694,37.0998332 C24.4587474,37.2510021 24.5890884,37.1579751 29.031543,37.2118884 C31.325544,37.2393737 33.2078849,37.2869443 34.4624167,37.3239437 C34.4928296,36.894751 34.5199839,36.2869043 34.5004328,35.5606596 C34.4765369,34.6716177 34.3483683,32.3258579 33.1894199,29.1840832 C32.1347442,26.3298465 31.1028782,23.5284659 28.2929442,20.969167 C27.1296511,19.909928 24.1437567,17.1857175 20.0532227,16.9214364 C18.3414113,16.8157239 16.9826067,17.1656322 12.0752693,17.1096046 C11.314947,17.1011476 10.6882242,17.0852907 10.2635299,17.0726052 L8.45070423,17.0356058 Z" id="Path" fill="#69B517" fill-rule="nonzero"></path>
            <path d="M32.5270798,4.92957746 L32.4208628,5.17434487 C30.8594728,8.63882802 29.5402575,11.1188502 29.0081103,12.1378158 C26.583176,16.7603615 25.3680534,19.0710952 25.1375625,20.0663389 C24.865647,21.2362624 23.8629584,25.5655185 25.8810816,29.4171007 C26.2815197,30.1805162 26.43341,30.2247253 29.0856487,33.7226349 C30.4537238,35.5276597 31.5562564,37.0242992 32.2902159,38.028169 C32.6471051,37.7801668 33.139952,37.4178679 33.7039643,36.9434289 C34.3911883,36.3633193 36.1639502,34.7804182 37.9388364,31.8917315 C39.553335,29.2650646 41.1349062,26.6912329 41.4514329,22.8860163 C41.583142,21.2998803 41.9198499,17.2542094 39.6457438,13.8986316 C38.6951015,12.4947234 37.5893825,11.6579854 34.6631039,7.79993356 C34.2095573,7.2025717 33.8420464,6.70333245 33.5945608,6.36475551 L32.5270798,4.92957746 Z" id="Path" fill="#2E3830" fill-rule="nonzero"></path>
            <text id="ENERGY-&amp;-LOGISTICS-L" font-family="Lato-Regular, Lato" font-size="7.04225352" font-weight="normal" fill="#2E3830">
                <tspan x="119.71831" y="45.028169">ENERGY &amp; LOGISTICS LTD</tspan>
            </text>
        </g>
    </g>
</svg>