<?xml version="1.0" encoding="UTF-8"?> 
<svg width="52px" height="13px" viewBox="0 0 295 71" version="1.1" xmlns="http://www.w3.org/2000/svg" xmlns:xlink="http://www.w3.org/1999/xlink">
    <!-- Generator: Sketch 55.1 (78136) - https://sketchapp.com -->
    <title>mainLogo</title>
    <desc>Created with Sketch.</desc>
    <g id="Page-1" stroke="none" stroke-width="1" fill="none" fill-rule="evenodd">
        <g id="Group">
            <text id="Latesmoore" font-family="SpinnenkopDEMO-Regular, Spinnenkop DEMO" font-size="60" font-weight="normal">
                <tspan x="88" y="53" fill="#69B517">Lat</tspan>
                <tspan x="145.9" y="53" fill="#2E3830">esmoore</tspan>
            </text>
            <path d="M78,41.2360046 C77.3634134,42.3540307 76.6812083,43.4407979 75.9533845,44.4963062 C67.5699722,56.6856046 53.7751934,63.9724873 39.0311393,64 C24.2870853,64.0273572 10.4655519,56.7918615 2.03728442,44.6338453 C1.31153424,43.5918825 0.632439438,42.5202238 0,41.4188691 C0.152993619,41.2844622 0.326210658,41.1752653 0.513209052,41.0953396 C1.16742099,42.177939 1.86517795,43.2271955 2.60647991,44.2431093 C11.1025962,55.9482566 24.6662895,62.8517831 39.0827577,62.8084767 C53.4992258,62.7651703 67.0216126,55.7802786 75.4479514,44.0242971 C76.1508922,43.044852 76.8149536,42.036753 77.4401356,41 C77.6382118,41.0477737 77.8272813,41.1274738 78,41.2360046 L78,41.2360046 Z" id="Path" fill="#69B517" fill-rule="nonzero"></path>
            <path d="M78,37.2360046 C77.3634134,38.3540307 76.6812083,39.4407979 75.9533845,40.4963062 C67.5699722,52.6856046 53.7751934,59.9724873 39.0311393,60 C24.2870853,60.0273572 10.4655519,52.7918615 2.03728442,40.6338453 C1.31153424,39.5918825 0.632439438,38.5202238 0,37.4188691 C0.152993619,37.2844622 0.326210658,37.1752653 0.513209052,37.0953396 C1.16742099,38.177939 1.86517795,39.2271955 2.60647991,40.2431093 C11.1025962,51.9482566 24.6662895,58.8517831 39.0827577,58.8084767 C53.4992258,58.7651703 67.0216126,51.7802786 75.4479514,40.0242971 C76.1508922,39.044852 76.8149536,38.036753 77.4401356,37 C77.6382118,37.0477737 77.8272813,37.1274738 78,37.2360046 L78,37.2360046 Z" id="Path" fill="#69B517" fill-rule="nonzero"></path>
            <path d="M12,24.1905603 L12.17583,24.5193049 C14.6621274,29.2313116 16.2661902,32.8399971 16.9263238,34.3065885 C19.9339416,40.9835575 21.4362081,44.3235431 22.3462053,45.4388731 C23.4150664,46.7493483 27.3743254,51.60246 33.5129505,52.6817632 C34.7314213,52.8964229 34.9165055,52.7643246 41.2247911,52.8408816 C44.4822725,52.8799106 47.1551965,52.9474609 48.9366317,53 C48.979818,52.3905465 49.0183772,51.5274041 48.9906146,50.4961366 C48.9566825,49.2336972 48.774683,45.9027183 47.1289762,41.4413982 C45.6313368,37.388382 44.1660871,33.4104216 40.1759808,29.7762171 C38.5241045,28.2720977 34.2841346,24.4037189 28.4755762,24.0284396 C26.0448041,23.8783279 24.1153016,24.3751977 17.1468824,24.2956385 C16.0672247,24.2836295 15.1772783,24.2611128 14.5742124,24.2430994 L12,24.1905603 Z" id="Path" fill="#69B517" fill-rule="nonzero"></path>
            <path d="M46.1884534,7 L46.0376252,7.34756972 C43.8204514,12.2671358 41.9471657,15.7887673 41.1915167,17.2356985 C37.7481099,23.7997133 36.0226359,27.0809552 35.6953388,28.4942012 C35.3092187,30.1554926 33.885401,36.3030362 36.7511359,41.772283 C37.319758,42.8563331 37.5354422,42.91911 41.3016212,47.8861415 C43.2442878,50.4492768 44.809884,52.5745048 45.8521066,54 C46.3588892,53.6478369 47.0587318,53.1333724 47.8596293,52.459669 C48.8354874,51.6359135 51.3528093,49.3881939 53.8731477,45.2862588 C56.1657357,41.5563917 58.4115669,37.9015507 58.8610348,32.4981431 C59.0480617,30.2458301 59.5261869,24.5009773 56.2969562,19.7360568 C54.9470442,17.7425072 53.3769231,16.5543393 49.2216075,11.0759057 C48.5775713,10.2276518 48.0557059,9.51873208 47.7042763,9.03795283 L46.1884534,7 Z" id="Path" fill="#2E3830" fill-rule="nonzero"></path>
            <text id="ENERGY-&amp;-LOGISTICS-L" font-family="Lato-Regular, Lato" font-size="10" font-weight="normal" fill="#2E3830">
                <tspan x="170" y="64">ENERGY &amp; LOGISTICS LTD</tspan>
            </text>
        </g>
    </g>
</svg>