<?xml version="1.0" encoding="UTF-8"?>
<svg width="40px" height="34px" viewBox="0 0 40 34" version="1.1" xmlns="http://www.w3.org/2000/svg" xmlns:xlink="http://www.w3.org/1999/xlink">
    <!-- Generator: Sketch 55.1 (78136) - https://sketchapp.com -->
    <title>planeBig</title>
    <desc>Created with Sketch.</desc>
    <g id="Page-1" stroke="none" stroke-width="1" fill="none" fill-rule="evenodd">
        <g id="planeBig" fill-rule="nonzero">
            <path d="M11.6875,31.3531772 L17.4272656,25.171359 L16.1977344,21.9967636 C16.1977344,21.9967636 12.4998437,22.511941 12.395625,22.8210318 C12.2914844,23.1301228 11.9789844,27.251309 11.926875,27.9725728 C11.8748437,28.6936818 11.6875,31.3531772 11.6875,31.3531772" id="Path" fill="#869D6D"></path>
            <path d="M39.8253126,0.189318182 C39.6519532,0.0118227273 39.3895312,-0.0461318182 39.1575782,0.0384045454 L0.407578124,14.2565863 C0.17078125,14.3435182 0.010234375,14.5626637 0.00046875,14.8122545 C-0.009296875,15.0618455 0.133515625,15.2928137 0.363046874,15.3975182 L7.33390627,18.5793 C7.87593747,18.8271137 8.2696094,19.3206545 8.38679687,19.8995818 L10.6371875,31.0301772 C10.6890625,31.2855636 10.8971875,31.481759 11.1578125,31.5203954 C11.4141406,31.5569454 11.6747656,31.4313772 11.8005469,31.2019546 L15.3534375,24.676041 C15.4498437,24.4988546 15.6207813,24.3820182 15.8221875,24.3560546 C16.0254687,24.330091 16.2189063,24.3986318 16.3580469,24.5452954 L25.1695312,33.80535 C25.2891406,33.930609 25.4539844,33.9997682 25.6248438,33.9997682 C25.6621094,33.9997682 25.6999218,33.9964454 25.7371874,33.9898 C25.9459376,33.952091 26.1210938,33.8123046 26.2022656,33.6185046 L39.9522656,0.85486818 C40.0474218,0.627918182 39.9974218,0.366504546 39.8253126,0.189318182 Z" id="Path" fill="#C3E1A2"></path>
            <path d="M39.5467188,0.0282045454 L7.9083594,19.0048409 C8.14367187,19.2540455 8.31757813,19.5579591 8.38679687,19.8995045 L10.6371875,31.0301 C10.6890625,31.2854864 10.8971875,31.4816818 11.1578125,31.5203182 C11.4141406,31.5568682 11.6747656,31.4313 11.8005469,31.2018772 L15.3534375,24.6759636 C15.3784375,24.6300636 15.4202344,24.601009 15.4544531,24.5637636 C15.4571875,24.5501636 15.4598437,24.536641 15.4598437,24.536641 L39.8204688,0.185686363 C39.7432032,0.108104545 39.6480468,0.0570272728 39.5467188,0.0282045454 Z" id="Path" fill="#69B517"></path>
        </g>
    </g>
</svg>