<?xml version="1.0" encoding="UTF-8"?>
<svg width="20px" height="17px" viewBox="0 0 20 17" version="1.1" xmlns="http://www.w3.org/2000/svg" xmlns:xlink="http://www.w3.org/1999/xlink">
    <!-- Generator: Sketch 55.1 (78136) - https://sketchapp.com -->
    <title>plane</title>
    <desc>Created with Sketch.</desc>
    <g id="Page-1" stroke="none" stroke-width="1" fill="none" fill-rule="evenodd">
        <g id="plane" fill-rule="nonzero">
            <path d="M5.84375,15.6765886 L8.71363281,12.5856795 L8.09886719,10.9983818 C8.09886719,10.9983818 6.24992188,11.2559705 6.1978125,11.4105159 C6.14574219,11.5650614 5.98949219,13.6256545 5.9634375,13.9862864 C5.93742188,14.3468409 5.84375,15.6765886 5.84375,15.6765886" id="Path" fill="#869D6D"></path>
            <path d="M19.9126563,0.0946590909 C19.8259766,0.00591136364 19.6947656,-0.0230659091 19.5787891,0.0192022727 L0.203789062,7.12829318 C0.085390625,7.17175909 0.0051171875,7.28133182 0.000234375,7.40612727 C-0.0046484375,7.53092273 0.0667578125,7.64640682 0.181523437,7.69875909 L3.66695313,9.28965 C3.93796875,9.41355682 4.13480469,9.66032727 4.19339844,9.94979091 L5.31859375,15.5150886 C5.34453125,15.6427818 5.44859375,15.7408795 5.57890625,15.7601977 C5.70707031,15.7784727 5.83738281,15.7156886 5.90027344,15.6009773 L7.67671875,12.3380205 C7.72492188,12.2494273 7.81039063,12.1910091 7.91109375,12.1780273 C8.01273438,12.1650455 8.10945313,12.1993159 8.17902344,12.2726477 L12.5847656,16.902675 C12.6445703,16.9653045 12.7269922,16.9998841 12.8124219,16.9998841 C12.8310547,16.9998841 12.8499609,16.9982227 12.8685937,16.9949 C12.9729688,16.9760455 13.0605469,16.9061523 13.1011328,16.8092523 L19.9761328,0.427434091 C20.0237109,0.313959091 19.9987109,0.183252273 19.9126563,0.0946590909 Z" id="Path" fill="#C3E1A2"></path>
            <path d="M19.7733594,0.0141022727 L3.95417969,9.50242045 C4.07183594,9.62702273 4.15878906,9.77897955 4.19339844,9.94975227 L5.31859375,15.51505 C5.34453125,15.6427432 5.44859375,15.7408409 5.57890625,15.7601591 C5.70707031,15.7784341 5.83738281,15.71565 5.90027344,15.6009386 L7.67671875,12.3379818 C7.68921875,12.3150318 7.71011719,12.3005045 7.72722656,12.2818818 C7.72859375,12.2750818 7.72992187,12.2683205 7.72992187,12.2683205 L19.9102344,0.0928431818 C19.8716016,0.0540522727 19.8240234,0.0285136364 19.7733594,0.0141022727 Z" id="Path" fill="#69B517"></path>
        </g>
    </g>
</svg>