<?xml version="1.0" encoding="UTF-8"?>
<svg width="40px" height="40px" viewBox="0 0 40 40" version="1.1" xmlns="http://www.w3.org/2000/svg" xmlns:xlink="http://www.w3.org/1999/xlink">
    <!-- Generator: Sketch 55.1 (78136) - https://sketchapp.com -->
    <title>left-arrow</title>
    <desc>Created with Sketch.</desc>
    <g id="Page-1" stroke="none" stroke-width="1" fill="none" fill-rule="evenodd">
        <g id="left-arrow" transform="translate(20.000000, 20.000000) rotate(-360.000000) translate(-20.000000, -20.000000) " fill-rule="nonzero">
            <path d="M39.0752467,19.9998871 C39.0752467,30.5083208 30.5565412,39.0270262 20.0481076,39.0270262 C9.53967386,39.0270262 1.02096844,30.5083208 1.02096844,19.9998871 C1.02096844,9.49145343 9.53967386,0.972748008 20.0481076,0.972748008 C30.5565412,0.972748008 39.0752467,9.49145343 39.0752467,19.9998871 Z" id="Path" fill="#69B517"></path>
            <path d="M1.02096844,19.9998871 C1.02096844,30.506508 9.54148664,39.0270262 20.0481076,39.0270262 L20.0481076,0.972748008 C9.54148664,0.972748008 1.02096844,9.49326621 1.02096844,19.9998871 Z" id="Path" fill="#A5D374"></path>
            <path d="M32.1140982,19.071734 L13.504628,19.071734 L20.5121841,12.0641779 C20.8736562,11.7027058 20.8736562,11.1168091 20.5121841,10.7556994 C20.150712,10.3942273 19.5648153,10.3942273 19.2037058,10.7556994 L9.94972904,19.9998871 L19.1942792,29.2444372 C19.3683079,29.4195537 19.6061471,29.5167197 19.853413,29.5135363 C20.0995911,29.512369 20.3356175,29.4159281 20.5121841,29.2444372 C20.6862128,29.0707712 20.7837414,28.8354698 20.7837414,28.5900168 C20.7837414,28.3445638 20.6862128,28.1088999 20.5121841,27.9355964 L13.504628,20.9280402 L32.1140982,20.9280402 C32.6267578,20.9280402 33.0422513,20.5125467 33.0422513,19.9998871 C33.0422513,19.4872275 32.6267578,19.071734 32.1140982,19.071734 L32.1140982,19.071734 Z" id="Path" fill="#2E3830"></path>
            <path d="M20.0481076,0.0445378492 C11.9768009,0.0431446412 4.69986291,4.90470918 1.61121582,12.3618395 C-1.47706864,19.8189697 0.231313209,28.4022108 5.94018001,34.1078147 C13.731953,41.8995877 26.3646247,41.8995877 34.1560351,34.1078147 C41.9478081,26.3164042 41.9478081,13.6837326 34.1560351,5.89195958 C30.4227567,2.13729013 25.3429311,0.0319052638 20.0481076,0.0445378492 Z M20.0481076,38.0988731 C10.0704614,38.0988731 1.94912157,29.9775332 1.94912157,19.9998871 C1.94912157,10.022241 10.0704614,1.90090114 20.0481076,1.90090114 C30.0257537,1.90090114 38.1470935,10.022241 38.1470935,19.9998871 C38.1470935,29.9775332 30.0257537,38.0988731 20.0481076,38.0988731 Z" id="Shape" fill="#2E3830"></path>
        </g>
    </g>
</svg>