<?xml version="1.0" encoding="UTF-8"?>
<svg width="40px" height="40px" viewBox="0 0 40 40" version="1.1" xmlns="http://www.w3.org/2000/svg" xmlns:xlink="http://www.w3.org/1999/xlink">
    <!-- Generator: Sketch 55.1 (78136) - https://sketchapp.com -->
    <title>recycleBig</title>
    <desc>Created with Sketch.</desc>
    <g id="Page-1" stroke="none" stroke-width="1" fill="none" fill-rule="evenodd">
        <g id="recycleBig" fill-rule="nonzero">
            <g id="Group">
                <path d="M37.8905468,17.328125 L36.25,2.578125 L33.0859376,4.828125 C29.4765624,1.71085937 24.8046874,0 20,0 C9.00781247,0 0,9.00781253 0,20 L0,21.171875 L7.03125,21.171875 L7.03125,20 C7.03125,12.8983594 12.8983594,7.03125 20,7.03125 C22.5078124,7.03125 25.0234376,7.75781253 27.0859374,9.11718747 L24.8360156,10.7342187 L37.8905468,17.328125 Z" id="Path" fill="#C3E1A2"></path>
                <path d="M40,18.828125 L40,20 C40,31.1328124 30.875,40 20,40 C15.1953125,40 10.5234375,38.2889844 6.91406253,35.171875 L3.74992188,37.4217968 L2.10945312,22.671875 L15.1639844,29.2655468 L12.9140625,30.8828124 C14.9765625,32.2421876 17.4921875,32.96875 20,32.96875 C27.1016406,32.96875 32.96875,27.1014844 32.96875,20 L32.96875,18.828125 L40,18.828125 Z" id="Path" fill="#69B517"></path>
            </g>
            <g id="Group" transform="translate(20.000000, 0.000000)">
                <path d="M7.08593747,9.11718747 C5.0234375,7.75781247 2.5078125,7.03125 0,7.03125 L0,0 C4.8046875,0 9.47656253,1.71085937 13.0859375,4.828125 L16.2500781,2.57804688 L17.890625,17.3280469 L4.83609374,10.7342187 L7.08593747,9.11718747 Z" id="Path" fill="#69B517"></path>
                <path d="M20,18.828125 L20,20 C20,31.1328124 10.875,40 0,40 L0,32.96875 C7.1016406,32.96875 12.96875,27.1014844 12.96875,20 L12.96875,18.828125 L20,18.828125 Z" id="Path" fill="#C3E1A2"></path>
            </g>
        </g>
    </g>
</svg>