<?xml version="1.0" encoding="UTF-8"?>
<svg width="20px" height="20px" viewBox="0 0 20 20" version="1.1" xmlns="http://www.w3.org/2000/svg" xmlns:xlink="http://www.w3.org/1999/xlink">
    <!-- Generator: Sketch 55.1 (78136) - https://sketchapp.com -->
    <title>recycle</title>
    <desc>Created with Sketch.</desc>
    <g id="Page-1" stroke="none" stroke-width="1" fill="none" fill-rule="evenodd">
        <g id="recycle" fill-rule="nonzero">
            <g id="Group">
                <path d="M18.9452734,8.6640625 L18.125,1.2890625 L16.5429688,2.4140625 C14.7382812,0.855429688 12.4023437,0 10,0 C4.50390625,0 0,4.50390625 0,10 L0,10.5859375 L3.515625,10.5859375 L3.515625,10 C3.515625,6.44917969 6.44917969,3.515625 10,3.515625 C11.2539062,3.515625 12.5117188,3.87890625 13.5429687,4.55859375 L12.4180078,5.36710938 L18.9452734,8.6640625 Z" id="Path" fill="#C3E1A2"></path>
                <path d="M20,9.4140625 L20,10 C20,15.5664062 15.4375,20 10,20 C7.59765625,20 5.26171875,19.1444922 3.45703125,17.5859375 L1.87496094,18.7108984 L1.05472656,11.3359375 L7.58199219,14.6327734 L6.45703125,15.4414062 C7.48828125,16.1210938 8.74609375,16.484375 10,16.484375 C13.5508203,16.484375 16.484375,13.5507422 16.484375,10 L16.484375,9.4140625 L20,9.4140625 Z" id="Path" fill="#69B517"></path>
            </g>
            <g id="Group" transform="translate(10.000000, 0.000000)">
                <path d="M3.54296875,4.55859375 C2.51171875,3.87890625 1.25390625,3.515625 0,3.515625 L0,0 C2.40234375,0 4.73828125,0.855429688 6.54296875,2.4140625 L8.12503906,1.28902344 L8.9453125,8.66402344 L2.41804687,5.36710938 L3.54296875,4.55859375 Z" id="Path" fill="#69B517"></path>
                <path d="M10,9.4140625 L10,10 C10,15.5664062 5.4375,20 0,20 L0,16.484375 C3.55082031,16.484375 6.484375,13.5507422 6.484375,10 L6.484375,9.4140625 L10,9.4140625 Z" id="Path" fill="#C3E1A2"></path>
            </g>
        </g>
    </g>
</svg>