<?xml version="1.0" encoding="UTF-8"?>
<svg width="39px" height="44px" viewBox="0 0 39 44" version="1.1" xmlns="http://www.w3.org/2000/svg" xmlns:xlink="http://www.w3.org/1999/xlink">
    <!-- Generator: Sketch 55.1 (78136) - https://sketchapp.com -->
    <title>soiltestBig</title>
    <desc>Created with Sketch.</desc>
    <defs>
        <linearGradient x1="22.8020634%" y1="37.8248689%" x2="77.2095308%" y2="62.1793399%" id="linearGradient-1">
            <stop stop-color="#C3E1A2" offset="0%"></stop>
            <stop stop-color="#C3E1A2" offset="17.17%"></stop>
            <stop stop-color="#EBEBF4" offset="18.43%"></stop>
            <stop stop-color="#FFF5F4" offset="25.22%"></stop>
            <stop stop-color="#FFF5F4" offset="26%"></stop>
            <stop stop-color="#C3E1A2" offset="26%"></stop>
            <stop stop-color="#C3E1A2" offset="39.74%"></stop>
            <stop stop-color="#C3E1A2" offset="42%"></stop>
            <stop stop-color="#EBEBF4" offset="43.05%"></stop>
            <stop stop-color="#FFF5F4" offset="48.94%"></stop>
            <stop stop-color="#FFF5F4" offset="50%"></stop>
            <stop stop-color="#F9F2F4" offset="50%"></stop>
            <stop stop-color="#E8EBF4" offset="50.01%"></stop>
            <stop stop-color="#DDE5F4" offset="50.03%"></stop>
            <stop stop-color="#D6E2F4" offset="50.05%"></stop>
            <stop stop-color="#C3E1A2" offset="50.1%"></stop>
            <stop stop-color="#C3E1A2" offset="70.62%"></stop>
            <stop stop-color="#FFF5F4" offset="75.19%"></stop>
            <stop stop-color="#FFF5F4" offset="83.46%"></stop>
            <stop stop-color="#FFF5F4" offset="85%"></stop>
            <stop stop-color="#C3E1A2" offset="85.1%"></stop>
        </linearGradient>
    </defs>
    <g id="Page-1" stroke="none" stroke-width="1" fill="none" fill-rule="evenodd">
        <g id="soiltestBig" fill-rule="nonzero">
            <path d="M0.828535019,7.09513547 C1.39193883,3.57296798 9.44529925,0.787407637 19.304866,0.787407637 L19.304866,42.5623462 C9.44529925,42.5623462 1.39193883,39.7767857 0.828535019,36.2546182 L0.795393615,36.2546182 L0.795393615,7.09513547 L0.828535019,7.09513547 Z" id="Path" fill="#FFFFFF"></path>
            <path d="M37.7811968,7.09513547 C37.2177931,3.57296798 29.1644326,0.787407637 19.304866,0.787407637 L19.304866,42.5623462 C29.1644326,42.5623462 37.2177931,39.7767857 37.7811968,36.2546182 L37.8143382,36.2546182 L37.8143382,7.09513547 L37.7811968,7.09513547 Z" id="Path" fill="#869D6D"></path>
            <g id="Group" transform="translate(3.065580, 0.762006)" fill="#C3E1A2">
                <path d="M32.4040047,6.33312808 L32.4040047,6.33312808 C31.8406008,2.81942734 28.4104658,0.0254002463 18.5591845,0.0254002463 C8.70790302,0.0254002463 0.637971965,2.81096059 0.0745681517,6.33312808 L0.0414267509,6.33312808 L0.0414267509,35.4926108 L0.0745681517,35.4926108 C0.637971965,39.0063117 8.69133238,41.8003386 18.5508991,41.8003386 C28.4104658,41.8003386 31.8323153,39.0147783 32.3957192,35.4926108 L32.4288605,35.4926108 L32.4288605,6.33312808 L32.4040047,6.33312808 Z" id="Path"></path>
                <ellipse id="Oval" cx="18.169773" cy="7.12053571" rx="17.3578087" ry="7.09513547"></ellipse>
            </g>
            <ellipse id="Oval" fill="#FFFFFF" cx="18.1449169" cy="7.8825431" rx="17.3578087" ry="7.09513547"></ellipse>
            <ellipse id="Oval" fill="url(#linearGradient-1)" cx="19.304866" cy="7.8825431" rx="16.1978596" ry="7.09513547"></ellipse>
            <g id="Group" fill="#69B517">
                <path d="M19.304866,43.3497537 C9.17188264,43.3497537 1.02738343,40.4710591 0.115994903,36.6102217 C0.0579974513,36.500154 0.0248560505,36.3816193 0.0248560505,36.2546182 L0.0248560505,7.09513547 C0.0248560505,6.95966749 0.0579974513,6.83266626 0.124280253,6.71413177 C1.06052482,2.87022783 9.19673872,0 19.304866,0 C29.4129933,0 37.549207,2.87022783 38.4937369,6.71413177 C38.5600197,6.83266626 38.5931612,6.95966749 38.5931612,7.09513547 L38.5931612,36.2546182 C38.5931612,36.3900862 38.5600197,36.5170874 38.4937369,36.6356221 C37.549207,40.4795258 29.4129933,43.3497537 19.304866,43.3497537 Z M1.56593118,36.0260161 C1.57421654,36.0598831 1.58250189,36.0937501 1.59078724,36.1276171 C2.02991079,38.85391 9.25473615,41.7749384 19.304866,41.7749384 C29.3549957,41.7749384 36.5798211,38.85391 37.0189447,36.1276171 C37.0272301,36.0937501 37.0355153,36.0598831 37.0438008,36.0175493 L37.0438008,7.32373769 C37.0355153,7.28987069 37.0272301,7.25600369 37.0189447,7.2221367 C36.5798211,4.4958436 29.3632811,1.57481527 19.304866,1.57481527 C9.24645079,1.57481527 2.02991079,4.4958436 1.59078724,7.2221367 C1.58250189,7.25600369 1.57421654,7.28987069 1.56593118,7.33220443 C1.56593118,7.32373769 1.56593118,36.0260161 1.56593118,36.0260161 Z" id="Shape"></path>
                <path d="M19.304866,35.4672105 C9.17188264,35.4672105 1.02738343,32.5885159 0.115994903,28.7276784 C0.0579974513,28.6176108 0.0248560505,28.4990764 0.0248560505,28.372075 L0.0248560505,18.1273091 C0.0248560505,17.695505 0.372840758,17.3399015 0.795393615,17.3399015 C1.21794648,17.3399015 1.56593118,17.695505 1.56593118,18.1273091 C1.56593118,21.1076047 9.15531192,24.4350369 19.304866,24.4350369 C29.45442,24.4350369 37.0438008,21.1076047 37.0438008,18.1273091 C37.0438008,17.695505 37.3917853,17.3399015 37.8143382,17.3399015 C38.2368912,17.3399015 38.5848758,17.695505 38.5848758,18.1273091 L38.5848758,28.372075 C38.5848758,28.5075432 38.5517345,28.6345443 38.4854516,28.7530788 C37.549207,32.5969828 29.4129933,35.4672105 19.304866,35.4672105 Z M1.56593118,28.1434729 C1.57421654,28.1773399 1.58250189,28.2112069 1.59078724,28.2450739 C2.02991079,30.971367 9.25473615,33.8923952 19.304866,33.8923952 C29.3549957,33.8923952 36.5798211,30.971367 37.0189447,28.2450739 C37.0272301,28.2112069 37.0355153,28.1773399 37.0438008,28.135006 L37.0438008,21.2092057 C34.1025013,24.028633 27.2588021,26.0098522 19.304866,26.0098522 C11.3509297,26.0098522 4.5072305,24.028633 1.56593118,21.2176724 L1.56593118,28.1434729 Z" id="Shape"></path>
                <path d="M19.304866,26.0098522 C9.17188264,26.0098522 1.02738343,23.1311576 0.115994903,19.2703202 C0.0579974513,19.1602524 0.0248560505,19.041718 0.0248560505,18.9147167 L0.0248560505,8.66995072 C0.0248560505,8.23814655 0.372840758,7.8825431 0.795393615,7.8825431 C1.21794648,7.8825431 1.56593118,8.23814655 1.56593118,8.66995072 C1.56593118,11.6502463 9.15531192,14.9776786 19.304866,14.9776786 C29.45442,14.9776786 37.0438008,11.6502463 37.0438008,8.66995072 C37.0438008,8.23814655 37.3917853,7.8825431 37.8143382,7.8825431 C38.2368912,7.8825431 38.5848758,8.23814655 38.5848758,8.66995072 L38.5848758,18.9147167 C38.5848758,19.0501847 38.5517345,19.177186 38.4854516,19.2957205 C37.549207,23.1396243 29.4129933,26.0098522 19.304866,26.0098522 Z M1.56593118,18.6861145 C1.57421654,18.7199815 1.58250189,18.7538485 1.59078724,18.7877155 C2.02991079,21.5140086 9.25473615,24.4350369 19.304866,24.4350369 C29.3549957,24.4350369 36.5798211,21.5140086 37.0189447,18.7877155 C37.0272301,18.7538485 37.0355153,18.7199815 37.0438008,18.6776478 L37.0438008,11.7518473 C34.1025013,14.5712746 27.2588021,16.5524938 19.304866,16.5524938 C11.3509297,16.5524938 4.5072305,14.5712746 1.56593118,11.760314 L1.56593118,18.6861145 Z" id="Shape"></path>
            </g>
        </g>
    </g>
</svg>