<?xml version="1.0" encoding="UTF-8"?>
<svg width="18px" height="20px" viewBox="0 0 18 20" version="1.1" xmlns="http://www.w3.org/2000/svg" xmlns:xlink="http://www.w3.org/1999/xlink">
    <!-- Generator: Sketch 55.1 (78136) - https://sketchapp.com -->
    <title>soiltest</title>
    <desc>Created with Sketch.</desc>
    <defs>
        <linearGradient x1="22.8020634%" y1="38.0763579%" x2="77.2095308%" y2="61.927764%" id="linearGradient-1">
            <stop stop-color="#C3E1A2" offset="0%"></stop>
            <stop stop-color="#C3E1A2" offset="17.17%"></stop>
            <stop stop-color="#EBEBF4" offset="18.43%"></stop>
            <stop stop-color="#FFF5F4" offset="25.22%"></stop>
            <stop stop-color="#FFF5F4" offset="26%"></stop>
            <stop stop-color="#C3E1A2" offset="26%"></stop>
            <stop stop-color="#C3E1A2" offset="39.74%"></stop>
            <stop stop-color="#C3E1A2" offset="42%"></stop>
            <stop stop-color="#EBEBF4" offset="43.05%"></stop>
            <stop stop-color="#FFF5F4" offset="48.94%"></stop>
            <stop stop-color="#FFF5F4" offset="50%"></stop>
            <stop stop-color="#F9F2F4" offset="50%"></stop>
            <stop stop-color="#E8EBF4" offset="50.01%"></stop>
            <stop stop-color="#DDE5F4" offset="50.03%"></stop>
            <stop stop-color="#D6E2F4" offset="50.05%"></stop>
            <stop stop-color="#C3E1A2" offset="50.1%"></stop>
            <stop stop-color="#C3E1A2" offset="70.62%"></stop>
            <stop stop-color="#FFF5F4" offset="75.19%"></stop>
            <stop stop-color="#FFF5F4" offset="83.46%"></stop>
            <stop stop-color="#FFF5F4" offset="85%"></stop>
            <stop stop-color="#C3E1A2" offset="85.1%"></stop>
        </linearGradient>
    </defs>
    <g id="Page-1" stroke="none" stroke-width="1" fill="none" fill-rule="evenodd">
        <g id="soiltest" fill-rule="nonzero">
            <path d="M0.386266094,3.2734375 C0.648927039,1.6484375 4.40343348,0.36328125 9,0.36328125 L9,19.6367188 C4.40343348,19.6367188 0.648927039,18.3515625 0.386266094,16.7265625 L0.370815451,16.7265625 L0.370815451,3.2734375 L0.386266094,3.2734375 Z" id="Path" fill="#FFFFFF"></path>
            <path d="M17.6137339,3.2734375 C17.351073,1.6484375 13.5965665,0.36328125 9,0.36328125 L9,19.6367188 C13.5965665,19.6367188 17.351073,18.3515625 17.6137339,16.7265625 L17.6291845,16.7265625 L17.6291845,3.2734375 L17.6137339,3.2734375 Z" id="Path" fill="#869D6D"></path>
            <g id="Group" transform="translate(1.429185, 0.351562)" fill="#C3E1A2">
                <path d="M15.106867,2.921875 L15.106867,2.921875 C14.844206,1.30078125 13.2450644,0.01171875 8.65236052,0.01171875 C4.05965665,0.01171875 0.297424893,1.296875 0.0347639485,2.921875 L0.0193133047,2.921875 L0.0193133047,16.375 L0.0347639485,16.375 C0.297424893,17.9960938 4.05193133,19.2851562 8.64849785,19.2851562 C13.2450644,19.2851562 14.8403433,18 15.1030043,16.375 L15.1184549,16.375 L15.1184549,2.921875 L15.106867,2.921875 Z" id="Path"></path>
                <ellipse id="Oval" cx="8.47081545" cy="3.28515625" rx="8.09227468" ry="3.2734375"></ellipse>
            </g>
            <ellipse id="Oval" fill="#FFFFFF" cx="8.45922747" cy="3.63671875" rx="8.09227468" ry="3.2734375"></ellipse>
            <ellipse id="Oval" fill="url(#linearGradient-1)" cx="9" cy="3.63671875" rx="7.55150215" ry="3.2734375"></ellipse>
            <g id="Group" fill="#69B517">
                <path d="M9,20 C4.27596567,20 0.478969957,18.671875 0.0540772532,16.890625 C0.0270386266,16.8398438 0.0115879828,16.7851562 0.0115879828,16.7265625 L0.0115879828,3.2734375 C0.0115879828,3.2109375 0.0270386266,3.15234375 0.0579399142,3.09765625 C0.494420601,1.32421875 4.28755365,0 9,0 C13.7124464,0 17.5055794,1.32421875 17.9459227,3.09765625 C17.976824,3.15234375 17.9922747,3.2109375 17.9922747,3.2734375 L17.9922747,16.7265625 C17.9922747,16.7890625 17.976824,16.8476562 17.9459227,16.9023438 C17.5055794,18.6757812 13.7124464,20 9,20 Z M0.730042918,16.6210938 C0.733905579,16.6367188 0.73776824,16.6523438 0.741630901,16.6679688 C0.946351931,17.9257812 4.31459227,19.2734375 9,19.2734375 C13.6854077,19.2734375 17.0536481,17.9257812 17.2583691,16.6679688 C17.2622318,16.6523438 17.2660944,16.6367188 17.2699571,16.6171875 L17.2699571,3.37890625 C17.2660944,3.36328125 17.2622318,3.34765625 17.2583691,3.33203125 C17.0536481,2.07421875 13.6892704,0.7265625 9,0.7265625 C4.31072961,0.7265625 0.946351931,2.07421875 0.741630901,3.33203125 C0.73776824,3.34765625 0.733905579,3.36328125 0.730042918,3.3828125 C0.730042918,3.37890625 0.730042918,16.6210938 0.730042918,16.6210938 Z" id="Shape"></path>
                <path d="M9,16.3632812 C4.27596567,16.3632812 0.478969957,15.0351562 0.0540772532,13.2539062 C0.0270386266,13.203125 0.0115879828,13.1484375 0.0115879828,13.0898437 L0.0115879828,8.36328125 C0.0115879828,8.1640625 0.173819742,8 0.370815451,8 C0.567811159,8 0.730042918,8.1640625 0.730042918,8.36328125 C0.730042918,9.73828125 4.26824034,11.2734375 9,11.2734375 C13.7317597,11.2734375 17.2699571,9.73828125 17.2699571,8.36328125 C17.2699571,8.1640625 17.4321888,8 17.6291845,8 C17.8261803,8 17.988412,8.1640625 17.988412,8.36328125 L17.988412,13.0898437 C17.988412,13.1523438 17.9729614,13.2109375 17.9420601,13.265625 C17.5055794,15.0390625 13.7124464,16.3632812 9,16.3632812 Z M0.730042918,12.984375 C0.733905579,13 0.73776824,13.015625 0.741630901,13.03125 C0.946351931,14.2890625 4.31459227,15.6367187 9,15.6367187 C13.6854077,15.6367187 17.0536481,14.2890625 17.2583691,13.03125 C17.2622318,13.015625 17.2660944,13 17.2699571,12.9804687 L17.2699571,9.78515625 C15.8987124,11.0859375 12.7081545,12 9,12 C5.29184549,12 2.10128755,11.0859375 0.730042918,9.7890625 L0.730042918,12.984375 Z" id="Shape"></path>
                <path d="M9,12 C4.27596567,12 0.478969957,10.671875 0.0540772532,8.890625 C0.0270386266,8.83984375 0.0115879828,8.78515625 0.0115879828,8.7265625 L0.0115879828,4 C0.0115879828,3.80078125 0.173819742,3.63671875 0.370815451,3.63671875 C0.567811159,3.63671875 0.730042918,3.80078125 0.730042918,4 C0.730042918,5.375 4.26824034,6.91015625 9,6.91015625 C13.7317597,6.91015625 17.2699571,5.375 17.2699571,4 C17.2699571,3.80078125 17.4321888,3.63671875 17.6291845,3.63671875 C17.8261803,3.63671875 17.988412,3.80078125 17.988412,4 L17.988412,8.7265625 C17.988412,8.7890625 17.9729614,8.84765625 17.9420601,8.90234375 C17.5055794,10.6757812 13.7124464,12 9,12 Z M0.730042918,8.62109375 C0.733905579,8.63671875 0.73776824,8.65234375 0.741630901,8.66796875 C0.946351931,9.92578125 4.31459227,11.2734375 9,11.2734375 C13.6854077,11.2734375 17.0536481,9.92578125 17.2583691,8.66796875 C17.2622318,8.65234375 17.2660944,8.63671875 17.2699571,8.6171875 L17.2699571,5.421875 C15.8987124,6.72265625 12.7081545,7.63671875 9,7.63671875 C5.29184549,7.63671875 2.10128755,6.72265625 0.730042918,5.42578125 L0.730042918,8.62109375 Z" id="Shape"></path>
            </g>
        </g>
    </g>
</svg>